<svg xmlns="http://www.w3.org/2000/svg" version="1.1" xmlns:xlink="http://www.w3.org/1999/xlink" width="512" height="512" x="0" y="0" viewBox="0 0 512 512" style="enable-background:new 0 0 512 512" xml:space="preserve" class=""><g><path d="M509.539 228.942c0-61.321-23.768-118.86-66.925-162.018C399.457 23.768 341.918 0 280.596 0c-61.152 0-118.644 23.815-161.885 67.056-43.233 43.233-67.046 100.717-67.055 161.856l-.07 35.929c-.038 19.332-15.206 34.886-34.53 35.409l-14.594.395v14.6c0 30.149 19.967 65.482 52.108 92.211 11.473 9.542 26.705 19.837 46.178 28.627a69.92 69.92 0 0 0-.3 6.322c0 38.375 31.221 69.596 69.596 69.596 33.054 0 60.78-23.17 67.839-54.117h39.428C284.368 488.83 312.094 512 345.148 512c38.375 0 69.595-31.221 69.595-69.596 0-8.69-1.615-17.007-4.538-24.684a231.492 231.492 0 0 0 32.278-26.893c43.241-43.241 67.056-100.732 67.056-161.885zM384.743 442.404c0 21.833-17.762 39.596-39.595 39.596-16.962 0-31.462-10.724-37.09-25.746 26.566-3.156 52.095-10.875 75.656-22.784a39.521 39.521 0 0 1 1.029 8.934zm-104.146-14.521h-42.495c-6.699-31.426-34.665-55.073-68.06-55.073-25.579 0-47.964 13.88-60.058 34.494-15.15-7.171-27.1-15.32-36.233-22.914-17.066-14.192-34.261-35.915-39.603-56.642 10.853-3.097 20.766-8.979 28.833-17.252 11.963-12.268 18.57-28.46 18.604-45.596l.07-35.929v-.029C81.656 119.245 170.9 30 280.596 30c53.309 0 103.314 20.647 140.805 58.138 37.49 37.491 58.138 87.497 58.138 140.805-.001 109.696-89.246 198.94-198.942 198.94zM170.042 482c-21.833 0-39.596-17.763-39.596-39.596s17.763-39.595 39.596-39.595 39.595 17.762 39.595 39.595S191.875 482 170.042 482z" fill="#ffffff" opacity="1" data-original="#000000" class=""></path><path d="M306.658 300.244c-30.304 0-57.784-19.072-68.382-47.46l-28.105 10.492c14.954 40.056 53.729 66.968 96.487 66.968s81.533-26.912 96.488-66.968l-28.105-10.492c-10.599 28.387-38.079 47.46-68.383 47.46zM216.059 156.857h30V207h-30zM367.258 156.857h30V207h-30z" fill="#ffffff" opacity="1" data-original="#000000" class=""></path></g></svg>