<svg width="1200" height="630" viewBox="0 0 1200 630" fill="none" xmlns="http://www.w3.org/2000/svg">
  <!-- Background gradient -->
  <defs>
    <linearGradient id="gradient" x1="0%" y1="0%" x2="100%" y2="100%">
      <stop offset="0%" style="stop-color:#0f172a;stop-opacity:1" />
      <stop offset="100%" style="stop-color:#1e293b;stop-opacity:1" />
    </linearGradient>
  </defs>

  <rect width="1200" height="630" fill="url(#gradient)"/>

  <!-- Decorative elements -->
  <circle cx="100" cy="100" r="150" fill="#1e40af" opacity="0.1"/>
  <circle cx="1100" cy="530" r="200" fill="#3b82f6" opacity="0.1"/>

  <!-- Logo/Icon -->
  <g transform="translate(500, 150)">
    <!-- Building icon -->
    <rect x="0" y="40" width="200" height="180" rx="8" fill="#3b82f6" opacity="0.2"/>
    <rect x="10" y="50" width="35" height="35" rx="4" fill="#60a5fa"/>
    <rect x="55" y="50" width="35" height="35" rx="4" fill="#60a5fa"/>
    <rect x="100" y="50" width="35" height="35" rx="4" fill="#60a5fa"/>
    <rect x="145" y="50" width="35" height="35" rx="4" fill="#60a5fa"/>

    <rect x="10" y="95" width="35" height="35" rx="4" fill="#60a5fa"/>
    <rect x="55" y="95" width="35" height="35" rx="4" fill="#60a5fa"/>
    <rect x="100" y="95" width="35" height="35" rx="4" fill="#60a5fa"/>
    <rect x="145" y="95" width="35" height="35" rx="4" fill="#60a5fa"/>

    <rect x="10" y="140" width="35" height="35" rx="4" fill="#60a5fa"/>
    <rect x="55" y="140" width="35" height="35" rx="4" fill="#60a5fa"/>
    <rect x="100" y="140" width="35" height="35" rx="4" fill="#60a5fa"/>
    <rect x="145" y="140" width="35" height="35" rx="4" fill="#60a5fa"/>

    <rect x="70" y="185" width="60" height="35" rx="4" fill="#1e40af"/>
  </g>

  <!-- Text -->
  <text x="600" y="420" font-family="system-ui, -apple-system, sans-serif" font-size="64" font-weight="700" fill="#ffffff" text-anchor="middle">
    Registre du Québec
  </text>

  <text x="600" y="480" font-family="system-ui, -apple-system, sans-serif" font-size="32" font-weight="400" fill="#94a3b8" text-anchor="middle">
    Annuaire d'entreprises du Québec
  </text>

  <!-- Website -->
  <text x="600" y="550" font-family="system-ui, -apple-system, sans-serif" font-size="24" font-weight="500" fill="#60a5fa" text-anchor="middle">
    registreduquebec.com
  </text>
</svg>
