<svg id="Layer_1" viewBox="0 0 512 512" xmlns="http://www.w3.org/2000/svg" data-name="Layer 1"><g><rect fill="#3bc7f5" height="480" rx="240" width="480" x="16" y="16"/><g fill-rule="evenodd"><path d="m274.75 495.265c123.325-9.647 221.25-113.573 221.25-239.265 0-125.692-97.925-229.618-221.25-239.265-123.325 9.647-221.25 113.573-221.25 239.265 0 125.692 97.925 229.619 221.25 239.265z" fill="#b3eafb"/><path d="m115.266 43.46c-7.01 5.641-11.422 13.831-11.422 22.948s4.412 17.307 11.422 22.948c7.01-5.641 11.422-13.831 11.422-22.948s-4.412-17.307-11.422-22.948z" fill="#50bc5d"/><path d="m161.162 89.356c-5.641-7.01-13.831-11.422-22.948-11.422s-17.307 4.412-22.948 11.422c5.641 7.01 13.831 11.422 22.948 11.422s17.307-4.412 22.948-11.422z" fill="#50bc5d"/><path d="m115.266 135.251c7.01-5.641 11.422-13.831 11.422-22.948s-4.412-17.307-11.422-22.947c-7.01 5.641-11.422 13.831-11.422 22.947s4.412 17.307 11.422 22.948z" fill="#50bc5d"/><path d="m69.371 89.356c5.641 7.01 13.831 11.422 22.947 11.422s17.307-4.412 22.948-11.422c-5.641-7.01-13.831-11.422-22.948-11.422s-17.307 4.412-22.947 11.422z" fill="#50bc5d"/><path d="m115.266 288.357c1.003-18.343-5.498-37.02-19.51-51.032-14.012-14.013-32.689-20.513-51.032-19.51-1.003 18.343 5.498 37.02 19.51 51.032s32.689 20.513 51.032 19.51z" fill="#50bc5d"/><path d="m115.266 200.137c-1.409-25.775 7.725-52.02 27.415-71.709 19.69-19.69 45.934-28.825 71.709-27.415 1.409 25.775-7.725 52.019-27.415 71.709s-45.934 28.825-71.709 27.415z" fill="#50bc5d"/><path d="m115.266 200.137c1.409-25.775-7.726-52.02-27.416-71.709-19.69-19.69-45.934-28.825-71.709-27.415-1.409 25.775 7.725 52.019 27.415 71.709s45.934 28.825 71.709 27.415z" fill="#50bc5d"/><path d="m109.266 135.251c0-3.314 2.686-6 6-6s6 2.686 6 6v204.528c0 3.314-2.686 6-6 6s-6-2.686-6-6z" fill="#063"/><path d="m361.139 205.907c-.716-13.09 3.923-26.417 13.922-36.416s23.327-14.638 36.417-13.922c.716 13.09-3.923 26.417-13.922 36.417-9.999 9.999-23.327 14.638-36.417 13.922z" fill="#50bc5d"/><path d="m361.139 205.907c.716-13.09-3.923-26.417-13.923-36.416-9.999-9.999-23.327-14.638-36.416-13.922-.716 13.09 3.923 26.417 13.922 36.417 9.999 9.999 23.327 14.638 36.417 13.922z" fill="#50bc5d"/><path d="m361.139 142.954c-1.006-18.393 5.513-37.121 19.564-51.172 14.05-14.051 32.778-20.569 51.172-19.564 1.006 18.393-5.513 37.121-19.564 51.172-14.05 14.051-32.778 20.569-51.172 19.564z" fill="#50bc5d"/><path d="m361.139 142.954c1.006-18.393-5.513-37.121-19.564-51.172-14.05-14.051-32.778-20.569-51.172-19.564-1.006 18.393 5.513 37.121 19.564 51.172 14.05 14.051 32.778 20.569 51.172 19.564z" fill="#50bc5d"/><path d="m355.139 96.651c0-3.314 2.686-6 6-6s6 2.686 6 6v136.317c0 3.314-2.686 6-6 6s-6-2.686-6-6z" fill="#063"/><path d="m23.196 314.192c123.718 8.387 232.059 75.2 297.514 172.881-20.606 5.809-42.311 8.927-64.71 8.927-111.949 0-206.622-77.686-232.804-181.808z" fill="#c4d70d"/><path d="m494.411 228.563c-17.633-2.468-35.625-3.774-53.91-3.774-149.306 0-279.679 85.109-345.063 209.195 42.608 38.495 98.97 62.015 160.562 62.015 132 0 240-108 240-240 0-9.276-.552-18.428-1.589-27.437z" fill="#4eb241"/><path d="m115.266 288.357c-1.003-18.343 5.498-37.02 19.51-51.032 14.012-14.013 32.689-20.513 51.032-19.51 1.003 18.343-5.498 37.02-19.51 51.032s-32.689 20.513-51.032 19.51z" fill="#50bc5d"/><path d="m495.929 250.433c-3.466-.092-6.941-.144-10.429-.144-151.365 0-283.279 87.466-347.738 214.344 34.954 19.943 75.324 31.366 118.238 31.366 132 0 240-108 240-240 0-1.861-.029-3.716-.071-5.567z" fill="#83c035"/><path d="m495.578 270.001c-132.668 17.158-244.977 101.703-301.198 217.913 19.683 5.263 40.337 8.086 61.62 8.086 127.3 0 232.263-100.45 239.577-225.999z" fill="#a3ca28"/><path d="m287.252 493.951c103.279-13.584 186.423-93.49 204.903-195.202-91.37 37.501-163.842 108.305-204.903 195.202z" fill="#c4d70d"/></g></g><g fill-rule="evenodd"><path d="m412.35 81.635c-1.62 0-3.241-.56-4.56-1.7-42.138-36.231-95.78-56.19-151.04-56.19-45.329 0-89.34 13.23-127.26 38.24-3.229 2.129-7.57 1.23-9.69-1.99-2.13-3.231-1.24-7.57 1.98-9.7 40.222-26.53 86.89-40.55 134.97-40.55 58.612 0 115.49 21.16 160.17 59.58 2.932 2.52 3.26 6.94.74 9.87-1.379 1.61-3.34 2.44-5.31 2.44zm-346.279 37.27c-1.469 0-2.961-.46-4.221-1.42-3.078-2.341-3.69-6.73-1.35-9.81 4.032-5.311 8.32-10.52 12.77-15.49 2.581-2.88 7-3.13 9.88-.55s3.13 7 .55 9.88c-4.19 4.7-8.25 9.61-12.05 14.62-1.369 1.819-3.46 2.77-5.579 2.77zm190.681 383.35c65.508 0 127.28-25.69 173.918-72.33 46.64-46.65 72.331-108.41 72.33-173.92 0-60.96-22.668-119.56-63.85-165.01-2.59-2.87-7.02-3.091-9.88-.49-2.87 2.6-3.089 7.019-.49 9.89 38.83 42.87 60.221 98.13 60.22 155.61 0 128.06-104.19 232.25-232.25 232.25s-232.25-104.19-232.25-232.25c0-30.3 5.821-59.81 17.29-87.71 1.47-3.58-.228-7.671-3.81-9.14-3.57-1.47-7.659.24-9.13 3.81-12.18 29.6-18.35 60.91-18.35 93.04 0 65.51 25.682 127.27 72.33 173.92 46.64 46.64 108.411 72.33 173.922 72.33z"/><path d="m304.031 469.635c-1.199 0-2.411-.309-3.531-.96-3.33-1.96-4.45-6.24-2.5-9.58 21.732-37.131 49.11-70.31 81.38-98.62 32.872-28.84 69.92-51.83 110.13-68.33 3.581-1.47 7.67.24 9.13 3.81 1.471 3.58-.24 7.67-3.81 9.14-76.789 31.51-142.4 88.72-184.75 161.07-1.299 2.23-3.64 3.47-6.049 3.47z"/><path d="m248.66 412.145c-1.6 0-3.201-.549-4.521-1.659-2.949-2.49-3.32-6.91-.83-9.86 64.312-76.09 153.58-124.96 251.37-137.61 3.832-.49 7.35 2.21 7.84 6.05.501 3.83-2.21 7.34-6.04 7.84-94.32 12.19-180.43 59.34-242.47 132.76-1.389 1.63-3.36 2.48-5.349 2.479z"/><path d="m203.561 379.165c-1.73 0-3.462-.629-4.812-1.909-2.809-2.66-2.93-7.09-.28-9.9 77.312-81.71 185.81-126.91 297.65-123.9 3.861.1 6.91 3.32 6.81 7.18-.098 3.8-3.22 6.82-7 6.82-.06 0-.12 0-.19-.01-107.908-2.87-212.52 40.7-287.1 119.53-1.368 1.46-3.23 2.19-5.078 2.189z"/><path d="m157.862 354.605c-1.721 0-3.442-.63-4.792-1.9-2.82-2.65-2.949-7.08-.309-9.9 87.91-93.54 216-138.81 342.629-121.09 3.831.54 6.49 4.08 5.96 7.9-.539 3.83-4.07 6.5-7.9 5.97-122.149-17.1-245.69 26.57-330.49 116.81-1.37 1.469-3.23 2.21-5.098 2.21z"/><path d="m116.45 54.124c-2.83 3.81-4.381 8.281-4.381 12.881s1.55 9.06 4.38 12.88c2.84-3.82 4.39-8.29 4.39-12.88 0-4.601-1.55-9.07-4.389-12.881zm0 42.75c-1.55 0-3.1-.509-4.381-1.539-8.899-7.161-14-17.49-14-28.33 0-10.85 5.1-21.18 14-28.33 2.56-2.07 6.21-2.07 8.77 0 8.902 7.15 14 17.48 14 28.33s-5.1 21.17-14 28.33c-1.28 1.029-2.829 1.54-4.389 1.539z"/><path d="m126.452 89.874c3.809 2.831 8.288 4.391 12.878 4.391s9.07-1.56 12.88-4.39c-3.809-2.83-8.29-4.39-12.88-4.39-4.589 0-9.07 1.56-12.878 4.389zm12.879 18.39c-10.85 0-21.171-5.099-28.331-13.999-2.06-2.561-2.06-6.21 0-8.78 7.161-8.89 17.48-14 28.33-14s21.17 5.11 28.33 14c2.062 2.57 2.06 6.22 0 8.78-7.159 8.9-17.48 14-28.329 13.999z"/><path d="m116.45 99.874c-2.83 3.811-4.381 8.291-4.381 12.881s1.55 9.07 4.38 12.88c2.84-3.811 4.39-8.29 4.39-12.88 0-4.591-1.55-9.07-4.389-12.881zm0 42.75c-1.55 0-3.1-.509-4.381-1.539-8.899-7.16-14-17.49-14-28.33 0-10.85 5.1-21.17 14-28.33 2.56-2.06 6.21-2.06 8.77 0 8.902 7.159 14 17.48 14 28.33s-5.1 21.17-14 28.33c-1.28 1.03-2.829 1.54-4.389 1.539z"/><path d="m80.7 89.874c3.812 2.831 8.29 4.391 12.88 4.391s9.07-1.56 12.88-4.39c-3.809-2.83-8.29-4.39-12.88-4.39-4.588 0-9.07 1.56-12.88 4.389zm12.881 18.39c-10.852 0-21.171-5.099-28.332-13.999-2.059-2.561-2.06-6.21 0-8.78 7.161-8.89 17.48-14 28.33-14s21.17 5.11 28.33 14c2.06 2.57 2.06 6.22 0 8.78-7.158 8.9-17.49 14-28.329 13.999z"/><path d="m180.902 224.925c-14.591.83-28.502 6.98-38.932 17.41s-16.58 24.33-17.4 38.93c14.601-.82 28.5-6.98 38.93-17.41 10.42-10.42 16.58-24.33 17.402-38.93zm-59.69 70.43c-1.33 0-2.672-.04-4.021-.11-3.559-.19-6.41-3.04-6.6-6.61-1.148-20.91 6.68-41.4 21.49-56.2 14.802-14.8 35.29-22.63 56.2-21.49 3.57.2 6.41 3.04 6.61 6.61 1.141 20.92-6.69 41.4-21.49 56.2-13.848 13.85-32.679 21.6-52.188 21.6z"/><path d="m52.001 224.925c.819 14.6 6.978 28.51 17.408 38.93 10.422 10.43 24.33 16.59 38.93 17.41-.82-14.601-6.98-28.51-17.41-38.93-10.418-10.43-24.33-16.58-38.928-17.41zm63.328 63.33h.011zm-3.638 7.1c-19.501 0-38.332-7.75-52.182-21.6-14.798-14.8-22.63-35.28-21.49-56.2.2-3.57 3.04-6.41 6.61-6.61 20.91-1.15 41.4 6.69 56.2 21.49 14.802 14.8 22.63 35.29 21.49 56.2-.188 3.57-3.039 6.42-6.61 6.61-1.338.07-2.68.11-4.018.11z"/><path d="m209.891 108.375c-22.329.45-43.781 9.52-59.661 25.4-15.878 15.879-24.95 37.33-25.4 59.66 22.322-.45 43.77-9.52 59.66-25.4 15.881-15.891 24.94-37.33 25.401-59.66zm-86.83 99.08c-1.829 0-3.661-.05-5.492-.15-3.569-.2-6.42-3.04-6.609-6.61-1.559-28.591 9.14-56.59 29.37-76.82 20.232-20.221 48.23-30.94 76.82-29.37 3.561.2 6.41 3.04 6.6 6.61 1.571 28.59-9.14 56.59-29.37 76.82-18.93 18.93-44.66 29.52-71.319 29.52z"/><path d="m23.021 108.375c.45 22.33 9.518 43.77 25.398 59.66 15.88 15.88 37.33 24.94 59.66 25.4-.45-22.33-9.52-43.78-25.4-59.66s-37.33-24.95-59.658-25.4zm91.939 91.94h.009zm-5.11 7.14c-26.66 0-52.402-10.59-71.332-29.52-20.219-20.23-30.93-48.23-29.37-76.82.2-3.57 3.04-6.41 6.61-6.61 28.592-1.561 56.59 9.14 76.82 29.37s30.93 48.23 29.37 76.82c-.199 3.57-3.04 6.41-6.611 6.61-1.827.1-3.67.15-5.488.15z"/><path d="m116.45 333.065c-3.858 0-7-3.14-7-7v-190.441c0-3.86 3.14-6.999 7-6.999s7 3.14 7 7v190.44c0 3.859-3.13 7-7 7z"/><path d="m407.92 163.075c-9.079 1.03-17.63 5.1-24.17 11.64-6.529 6.53-10.6 15.09-11.64 24.16 9.08-1.03 17.63-5.1 24.17-11.64 6.541-6.54 10.61-15.09 11.64-24.16zm-40.399 50.06c-.99 0-1.981-.03-2.981-.08-3.559-.2-6.41-3.04-6.6-6.61-.849-15.49 4.95-30.67 15.91-41.63 10.972-10.97 26.14-16.78 41.64-15.92 3.561.189 6.41 3.04 6.61 6.6.841 15.5-4.96 30.68-15.92 41.64-10.259 10.26-24.209 16-38.659 16z"/><path d="m315.202 163.075c1.028 9.07 5.108 17.62 11.638 24.16 6.54 6.54 15.091 10.61 24.171 11.64-1.03-9.07-5.11-17.63-11.64-24.16-6.539-6.54-15.09-10.61-24.168-11.64zm43 42.99h.009zm-2.601 7.07c-14.449 0-28.401-5.74-38.661-16-10.958-10.96-16.759-26.14-15.92-41.63.201-3.57 3.05-6.42 6.61-6.61 15.501-.86 30.67 4.95 41.64 15.92 10.962 10.96 16.76 26.14 15.92 41.63-.2 3.57-3.049 6.41-6.61 6.61-.999.049-1.99.08-2.979.08z"/><path d="m428.181 79.784c-14.65.82-28.611 7.001-39.072 17.461-10.469 10.46-16.639 24.42-17.46 39.07 14.65-.821 28.6-7 39.07-17.46 10.461-10.461 16.64-24.42 17.461-39.071zm-59.881 70.621c-1.339 0-2.68-.03-4.03-.11-3.559-.191-6.41-3.04-6.61-6.61-1.139-20.96 6.71-41.5 21.549-56.34 14.83-14.841 35.39-22.7 56.34-21.54 3.571.19 6.41 3.04 6.61 6.61 1.15 20.969-6.71 41.5-21.54 56.34-13.89 13.889-32.77 21.65-52.32 21.65z"/><path d="m294.952 79.784c.81 14.651 6.988 28.611 17.448 39.071 10.47 10.459 24.43 16.64 39.07 17.46-.819-14.651-6.99-28.61-17.45-39.07-10.468-10.46-24.43-16.64-39.068-17.461zm63.52 63.521h.009zm-3.652 7.1c-19.55 0-38.43-7.76-52.31-21.65-14.839-14.841-22.69-35.37-21.55-56.34.202-3.571 3.05-6.42 6.61-6.61 20.97-1.17 41.51 6.7 56.34 21.54 14.841 14.839 22.69 35.37 21.549 56.34-.2 3.57-3.049 6.42-6.609 6.61-1.339.08-2.69.11-4.03.11z"/><path d="m361.561 240.045c-3.87 0-7.001-3.14-7.001-7v-135.901c.001-3.86 3.13-6.999 7-6.999 3.871 0 7 3.14 7 7v135.9c0 3.859-3.13 7-6.999 7z"/><path d="m321.261 493.355c-2.25 0-4.471-1.09-5.821-3.1-65.708-98.081-174.589-161.35-291.24-169.26-3.858-.26-6.77-3.6-6.51-7.46.26-3.851 3.6-6.79 7.45-6.51 60.722 4.12 120.6 22.7 173.16 53.75 51.141 30.2 95.67 72.28 128.77 121.68 2.152 3.22 1.3 7.56-1.92 9.72-1.189.8-2.55 1.18-3.889 1.18z"/></g></svg>