<svg id="Filled_Expand" height="512" viewBox="0 0 64 64" width="512" xmlns="http://www.w3.org/2000/svg" data-name="Filled Expand"><path d="m5 18h54v41h-54z" fill="#ffed86"/><path d="m7 18h52v41h-52z" fill="#ffdc52"/><path d="m59 21h-54v5.2a4.606 4.606 0 0 0 7-1.2 4.607 4.607 0 0 0 8 0 4.607 4.607 0 0 0 8 0 4.607 4.607 0 0 0 8 0 4.607 4.607 0 0 0 8 0 4.607 4.607 0 0 0 8 0 4.606 4.606 0 0 0 7 1.2z" fill="#ffdc52"/><path d="m44 21h-37v6.186a4.561 4.561 0 0 0 5-2.186 4.607 4.607 0 0 0 8 0 4.607 4.607 0 0 0 8 0 4.607 4.607 0 0 0 8 0 4.607 4.607 0 0 0 8 0 4.607 4.607 0 0 0 8 0 4.606 4.606 0 0 0 7 1.2v-5.2z" fill="#fcc338"/><path d="m11 1h42v6h-42z" fill="#bedfff"/><path d="m13 3h40v4h-40z" fill="#a4d2ff"/><path d="m3 59h58v4h-58z" fill="#8c9bb0"/><path d="m5 61h56v2h-56z" fill="#788ca3"/><path d="m60 23a4.607 4.607 0 0 1 -8 0v-4h8z" fill="#ff4f62"/><path d="m52 23a4.607 4.607 0 0 1 -8 0v-4h8z" fill="#e1eaff"/><path d="m44 23a4.607 4.607 0 0 1 -8 0v-4h8z" fill="#ff4f62"/><path d="m36 23a4.607 4.607 0 0 1 -8 0v-4h8z" fill="#e1eaff"/><path d="m28 23a4.607 4.607 0 0 1 -8 0v-4h8z" fill="#ff4f62"/><path d="m20 23a4.607 4.607 0 0 1 -8 0v-4h8z" fill="#e1eaff"/><path d="m12 23a4.607 4.607 0 0 1 -8 0v-4h8z" fill="#ff809c"/><path d="m6 24a4.621 4.621 0 0 0 1 1.206 4.582 4.582 0 0 0 5-2.206v-4h-6z" fill="#ff4f62"/><path d="m54.558 7h-45.116a2 2 0 0 0 -1.9 1.368l-3.542 10.632h56l-3.544-10.632a2 2 0 0 0 -1.898-1.368z" fill="#ffa4b8"/><path d="m8.877 10.368-2.877 8.632h54l-3.333-10h-45.892a2 2 0 0 0 -1.898 1.368z" fill="#ff809c"/><g fill="#fbfcff"><path d="m28.571 7-.571 12h8l-.571-12z"/><path d="m14.857 7-2.857 12h8l1.714-12z"/><path d="m42.286 7 1.714 12h8l-2.857-12z"/></g><path d="m28.476 9-.476 10h8l-.476-10z" fill="#f0f4ff"/><path d="m14.381 9-2.381 10h8l1.429-10z" fill="#f0f4ff"/><path d="m42.571 9 1.429 10h8l-2.381-10z" fill="#f0f4ff"/><path d="m10 39h13v20h-13z" fill="#a06b40"/><path d="m12 41h11v18h-11z" fill="#aa7a4c"/><path d="m28 29h26v26h-26z" fill="#85c4f9"/><path d="m30 31h24v24h-24z" fill="#a4d2ff"/><path d="m10 30h13v5h-13z" fill="#85c4f9"/><path d="m12 32h11v3h-11z" fill="#a4d2ff"/><path d="m47 44h-10l-1-7h13z" fill="#f0f4ff"/><path d="m61 58h-1v-33.353a5.717 5.717 0 0 0 .868-1.151.993.993 0 0 0 .132-.496v-4a1 1 0 0 0 -.051-.316l-3.544-10.633a3 3 0 0 0 -2.846-2.051h-.559v-5a1 1 0 0 0 -1-1h-42a1 1 0 0 0 -1 1v5h-.559a3 3 0 0 0 -2.841 2.051l-3.549 10.633a1 1 0 0 0 -.051.316v4a.993.993 0 0 0 .132.5 5.717 5.717 0 0 0 .868 1.147v33.353h-1a1 1 0 0 0 -1 1v4a1 1 0 0 0 1 1h58a1 1 0 0 0 1-1v-4a1 1 0 0 0 -1-1zm-38-20h-13a1 1 0 0 0 -1 1v19h-3v-32.049a5.631 5.631 0 0 0 2 .37 5.538 5.538 0 0 0 4-1.674 5.616 5.616 0 0 0 8 0 5.616 5.616 0 0 0 8 0 5.616 5.616 0 0 0 8 0 5.616 5.616 0 0 0 8 0 5.616 5.616 0 0 0 8 0 5.538 5.538 0 0 0 4 1.674 5.631 5.631 0 0 0 2-.37v32.049h-34v-19a1 1 0 0 0 -1-1zm-1 2v18h-11v-18zm-3-20v2.718a3.609 3.609 0 0 1 -6 0v-2.718zm-5.734-2 2.381-10h4.915l-1.429 10zm13.734 2v2.718a3.609 3.609 0 0 1 -6 0v-2.718zm-5.847-2 1.428-10h4.941l-.476 10zm13.847 2v2.718a3.609 3.609 0 0 1 -6 0v-2.718zm-5.951-2 .476-10h4.95l.476 10zm7.905 0-.476-10h4.941l1.428 10zm6.046 2v2.718a3.609 3.609 0 0 1 -6 0v-2.718zm1.867-2-1.429-10h4.915l2.381 10zm6.133 2v2.718a3.609 3.609 0 0 1 -6 0v-2.718zm5 4.321a3.561 3.561 0 0 1 -3-1.6v-2.721h6v2.718a3.561 3.561 0 0 1 -3 1.603zm-1.441-16.321a1 1 0 0 1 .948.684l3.106 9.316h-5.823l-2.381-10zm-42.559-6h40v4h-40zm-3.507 6.684a1 1 0 0 1 .948-.684h4.15l-2.381 10h-5.823zm-3.493 11.316h6v2.718a3.609 3.609 0 0 1 -6 0zm55 42h-56v-2h56z"/><path d="m19 51a1 1 0 0 0 1-1v-2a1 1 0 0 0 -2 0v2a1 1 0 0 0 1 1z"/><path d="m24 30a1 1 0 0 0 -1-1h-13a1 1 0 0 0 -1 1v5a1 1 0 0 0 1 1h13a1 1 0 0 0 1-1zm-2 4h-11v-3h11z"/><path d="m28 56h26a1 1 0 0 0 1-1v-26a1 1 0 0 0 -1-1h-26a1 1 0 0 0 -1 1v26a1 1 0 0 0 1 1zm1-26h24v24h-24z"/><path d="m49 36h-12.126l-.3-2.141a1 1 0 0 0 -.994-.859h-2.58a1 1 0 0 0 0 2h1.712l1.167 8.222a3 3 0 0 0 1.121 5.778v1a1 1 0 0 0 2 0v-1h6v1a1 1 0 0 0 2 0v-1a1 1 0 0 0 0-2h-10a1 1 0 0 1 0-2h10a1 1 0 0 0 .961-.726l2-7a1 1 0 0 0 -.961-1.274zm-2.754 7h-8.378l-.71-5h10.516z"/></svg>