<svg id="Capa_1" enable-background="new 0 0 512 512" height="512" viewBox="0 0 512 512" width="512" xmlns="http://www.w3.org/2000/svg"><g><g><g><path d="m153.155 366.718v120.298h-145.653v-120.298l51.861-21.588h41.931z" fill="#fea613"/><path d="m104.858 320.2h-49.062c-14.597 0-26.43-11.833-26.43-26.43v-46.51h101.922v46.511c0 14.596-11.833 26.429-26.43 26.429z" fill="#ffdfcf"/><path d="m131.284 247.26v46.51c0 14.6-11.83 26.43-26.43 26.43h-14.36c14.6 0 26.43-11.83 26.43-26.43v-46.51z" fill="#ffcebf"/><path d="m141.44 247.26h-122.226c-3.164 0-5.729-2.565-5.729-5.729v-15.485c0-3.164 2.565-5.729 5.729-5.729h122.226c3.164 0 5.729 2.565 5.729 5.729v15.485c0 3.164-2.565 5.729-5.729 5.729z" fill="#fea613"/><path d="m147.165 226.05v15.48c0 3.16-2.56 5.73-5.72 5.73h-14.44c3.17 0 5.73-2.57 5.73-5.73v-15.48c0-3.17-2.56-5.73-5.73-5.73h14.44c3.16 0 5.72 2.56 5.72 5.73z" fill="#fe9901"/><path d="m136.971 220.317h-113.288c0-24.267 19.672-43.939 43.939-43.939h25.41c24.267 0 43.939 19.672 43.939 43.939z" fill="#ffd15b"/><path d="m136.975 220.32h-12.65c0-24.27-19.67-43.94-43.94-43.94h12.65c24.26 0 43.94 19.67 43.94 43.94z" fill="#ffc344"/><path d="m87.969 163.806h-15.283c-2.765 0-5.006 2.241-5.006 5.006v51.505h25.295v-51.505c0-2.765-2.241-5.006-5.006-5.006z" fill="#fea613"/><path d="m92.975 168.81v51.51h-12.65v-51.51c0-2.76-2.24-5-5-5h12.64c2.77 0 5.01 2.24 5.01 5z" fill="#fe9901"/><path d="m59.364 320.2h41.926v24.925h-41.926z" fill="#ffdfcf"/><path d="m86.365 320.2h14.93v24.93h-14.93z" fill="#ffcebf"/><path d="m59.364 345.129 20.963 41.696 20.963-41.696z" fill="#0593fc"/><path d="m101.295 345.13-20.971 41.7-7.459-14.84 13.5-26.86z" fill="#0181fa"/><path d="m7.5 416.073h145.655v33.216h-145.655z" fill="#eaf6ff"/><path d="m153.15 366.72v82.57l.005 37.726-57.585.004 32.73-130.65z" fill="#fe9901"/><path d="m153.15 416.07v33.22h-48.13l8.32-33.22z" fill="#c8effe"/></g><g><path d="m504.5 366.718v120.298h-145.653v-120.298l51.861-21.588h41.931z" fill="#fea613"/><path d="m504.5 366.72v120.3h-14.93v-126.52z" fill="#fe9901"/><path d="m456.204 320.2h-49.062c-14.597 0-26.43-11.833-26.43-26.43v-46.51h101.922v46.511c0 14.596-11.833 26.429-26.43 26.429z" fill="#ffdfcf"/><path d="m482.63 247.26v46.51c0 14.6-11.83 26.43-26.43 26.43h-14.36c14.6 0 26.43-11.83 26.43-26.43v-46.51z" fill="#ffcebf"/><path d="m492.786 247.26h-122.226c-3.164 0-5.729-2.565-5.729-5.729v-15.485c0-3.164 2.565-5.729 5.729-5.729h122.226c3.164 0 5.729 2.565 5.729 5.729v15.485c-.001 3.164-2.565 5.729-5.729 5.729z" fill="#fea613"/><path d="m498.51 226.05v15.48c0 3.16-2.56 5.73-5.72 5.73h-14.44c3.17 0 5.73-2.57 5.73-5.73v-15.48c0-3.17-2.56-5.73-5.73-5.73h14.44c3.16 0 5.72 2.56 5.72 5.73z" fill="#fe9901"/><path d="m488.317 220.317h-113.288c0-24.267 19.672-43.939 43.939-43.939h25.41c24.266 0 43.939 19.672 43.939 43.939z" fill="#ffd15b"/><path d="m488.32 220.32h-12.65c0-24.27-19.67-43.94-43.94-43.94h12.65c24.26 0 43.94 19.67 43.94 43.94z" fill="#ffc344"/><path d="m439.314 163.806h-15.283c-2.765 0-5.006 2.241-5.006 5.006v51.505h25.295v-51.505c0-2.765-2.241-5.006-5.006-5.006z" fill="#fea613"/><path d="m444.32 168.81v51.51h-12.65v-51.51c0-2.76-2.24-5-5-5h12.64c2.77 0 5.01 2.24 5.01 5z" fill="#fe9901"/><path d="m410.71 320.2h41.926v24.925h-41.926z" fill="#ffdfcf"/><path d="m437.71 320.2h14.93v24.93h-14.93z" fill="#ffcebf"/><path d="m410.71 345.129 20.963 41.696 20.963-41.696z" fill="#0593fc"/><path d="m452.64 345.13-20.97 41.7-7.46-14.84 13.5-26.86z" fill="#0181fa"/><path d="m358.845 416.073h145.655v33.216h-145.655z" fill="#eaf6ff"/><path d="m489.57 416.07h14.93v33.22h-14.93z" fill="#c8effe"/></g><g><path d="m327.97 199.438c17.052 0 30.875-13.823 30.875-30.875s-13.823-30.875-30.875-30.875l-5.937 30.875z" fill="#ffcebf"/><path d="m184.03 199.438c-17.052 0-30.875-13.823-30.875-30.875s13.823-30.875 30.875-30.875l5.389 30.875z" fill="#ffdfcf"/><path d="m189.42 168.56-5.39 30.88c-5.63 0-10.9-1.51-15.44-4.13v-53.49c4.54-2.63 9.81-4.13 15.44-4.13z" fill="#ffcebf"/><path d="m290.644 251.428h-69.288c-20.615 0-37.326-16.712-37.326-37.326v-76.413h143.94v76.413c0 20.614-16.711 37.326-37.326 37.326z" fill="#ffdfcf"/><path d="m327.97 137.69v76.41c0 20.62-16.71 37.33-37.33 37.33h-18.02c20.62 0 37.33-16.71 37.33-37.33v-76.41z" fill="#ffcebf"/><path d="m342.308 137.688h-172.616c-4.468 0-8.091-3.622-8.091-8.091v-16.716c0-4.468 3.622-8.091 8.091-8.091h172.615c4.468 0 8.091 3.622 8.091 8.091v16.716c0 4.469-3.622 8.091-8.09 8.091z" fill="#fea613"/><path d="m350.4 112.88v16.72c0 4.47-3.62 8.09-8.09 8.09h-16.76c4.47 0 8.09-3.62 8.09-8.09v-16.72c0-4.47-3.62-8.09-8.09-8.09h16.76c4.47 0 8.09 3.62 8.09 8.09z" fill="#fe9901"/><path d="m335.996 104.791h-159.992c0-34.271 27.782-62.054 62.054-62.054h35.885c34.271 0 62.053 27.782 62.053 62.054z" fill="#ffd15b"/><path d="m336 104.79h-16.87c0-34.27-27.78-62.05-62.05-62.05h16.86c34.27 0 62.06 27.78 62.06 62.05z" fill="#ffc344"/><path d="m266.792 24.982h-21.584c-3.905 0-7.07 3.165-7.07 7.07v72.739h35.724v-72.739c0-3.904-3.165-7.07-7.07-7.07z" fill="#fea613"/><path d="m273.86 32.05v72.74h-16.78v-72.74c0-3.9-3.17-7.07-7.07-7.07h16.78c3.91 0 7.07 3.17 7.07 7.07z" fill="#fe9901"/><path d="m226.395 251.428h59.211v35.201h-59.211z" fill="#ffdfcf"/><path d="m267.3 251.43h18.31v35.2h-18.31z" fill="#ffcebf"/><path d="m401.413 487.015h-290.826l37.593-150.031c1.51-6.061 4.386-11.608 8.307-16.274 4.134-4.947 9.449-8.907 15.568-11.453l54.341-22.625h59.211l54.341 22.625c6.119 2.546 11.434 6.506 15.568 11.453 3.921 4.666 6.796 10.214 8.307 16.274z" fill="#0593fc"/><path d="m401.41 487.02h-18.3l-37.59-150.04c-1.51-6.06-4.39-11.6-8.31-16.27-4.13-4.95-9.45-8.91-15.56-11.45l-54.35-22.63h18.31l54.34 22.63c6.12 2.54 11.43 6.5 15.56 11.45 3.93 4.67 6.8 10.21 8.31 16.27z" fill="#0181fa"/><path d="m355.51 320.71c-11.23 12.89-17.46 29.43-17.46 46.63v119.68h-164.1v-119.68c0-17.2-6.23-33.74-17.46-46.63 4.13-4.95 9.44-8.91 15.56-11.45l54.34-22.63 29.61 45.16 29.61-45.16 54.34 22.63c6.12 2.54 11.43 6.5 15.56 11.45z" fill="#fea613"/><path d="m355.51 320.71c-11.23 12.89-17.46 29.43-17.46 46.63v119.68h-18.31v-119.68c0-17.2 6.23-33.74 17.46-46.63-4.13-4.95-9.44-8.91-15.56-11.45l-39.96-16.64 3.93-5.99 54.34 22.63c6.12 2.54 11.43 6.5 15.56 11.45z" fill="#fe9901"/><path d="m173.953 386.825h164.094v46.91h-164.094z" fill="#eaf6ff"/><path d="m319.74 386.83h18.31v46.9h-18.31z" fill="#c8effe"/></g></g><g><path d="m507.382 359.793-47.246-19.666v-12.662c16.863-1.956 29.998-16.317 29.998-33.695v-39.01h2.652c7.294 0 13.229-5.934 13.229-13.229v-15.485c0-6.436-4.622-11.807-10.719-12.983-3.192-22.505-20.996-40.367-43.475-43.64.361-6.044-5.074-13.071-12.506-13.117h-15.283c-6.106-.083-12.828 5.782-12.506 13.117-22.479 3.273-40.283 21.134-43.475 43.64-6.097 1.177-10.719 6.547-10.719 12.983v15.485c0 7.294 5.935 13.229 13.229 13.229h2.652v39.011c0 17.379 13.135 31.739 29.998 33.695v12.662l-27.954 11.636-4.158-16.593c-3.235-13.773-14.218-27.054-28.27-32.837l-5.591-2.328c-3.823-1.594-8.216.217-9.807 4.041-1.592 3.824.217 8.215 4.041 9.807l5.592 2.328c3.046 1.268 5.893 2.993 8.427 5.091-9.679 13.346-14.942 29.456-14.942 46.063v11.99h-67.049v-45.298l24.967-38.08 13.114 5.46c3.822 1.592 8.215-.217 9.807-4.041s-.217-8.215-4.041-9.807l-14.241-5.929v-22.773c23.576-1.282 42.365-20.864 42.365-44.756v-7.904c17.581-3.498 30.875-19.04 30.875-37.634 0-11.248-4.865-21.381-12.601-28.407 2.569-2.781 4.153-6.484 4.153-10.559v-16.717c0-8.332-6.576-15.139-14.808-15.551-3.305-31.618-29.034-58.267-61.729-61.693v-3.585c0-8.034-6.536-14.57-14.569-14.57h-21.584c-8.033 0-14.569 6.536-14.569 14.57v3.585c-31.771 3.37-58.244 28.989-61.729 61.693-8.232.412-14.808 7.218-14.808 15.551v16.717c0 4.075 1.584 7.778 4.153 10.559-7.736 7.025-12.601 17.158-12.601 28.407 0 18.594 13.294 34.136 30.875 37.634v7.904c0 23.891 18.789 43.473 42.365 44.756v22.773l-49.723 20.702c-13.302 5.369-24.52 17.958-28.269 32.829l-4.16 16.602-27.954-11.636v-12.662c16.863-1.956 29.998-16.317 29.998-33.695v-39.011c7.41 1.084 15.837-4.714 15.881-13.229v-15.485c0-6.436-4.622-11.807-10.719-12.983-3.19-22.491-20.977-40.344-43.475-43.634v-.617c0-6.896-5.61-12.506-12.506-12.506h-15.281c-6.896 0-12.506 5.61-12.506 12.506v.628c-6.159.9-12.131 2.888-17.568 5.918-3.618 2.016-4.916 6.584-2.9 10.202 1.373 2.462 3.927 3.851 6.559 3.851 1.235 0 2.488-.306 3.645-.95 3.204-1.785 6.674-3.057 10.266-3.804v28.16h-28.227c.136-.65.289-1.296.461-1.937 1.069-4.001-1.308-8.112-5.31-9.182-3.993-1.068-8.112 1.307-9.183 5.309-.531 1.988-.927 4.013-1.216 6.055-6.099 1.175-10.722 6.547-10.722 12.984v15.485c-.086 7.732 7.552 14.261 15.881 13.229v39.011c0 17.379 13.135 31.739 29.998 33.695v12.662l-47.246 19.665c-2.797 1.164-4.618 3.896-4.618 6.925v120.298c0 4.142 3.357 7.5 7.5 7.5s7.5-3.358 7.5-7.5v-30.227h57.827v30.228c0 4.142 3.357 7.5 7.5 7.5s7.5-3.358 7.5-7.5v-30.228h22.601l-7.117 28.404c-1.007 4.018 1.435 8.091 5.452 9.098.612.153 1.226.227 1.829.227 3.358 0 6.416-2.273 7.27-5.679l37.594-150.04c.4-1.604.936-3.177 1.576-4.707 6.116 9.942 9.419 21.434 9.419 33.244v119.68c0 4.142 3.357 7.5 7.5 7.5s7.5-3.358 7.5-7.5v-45.781h67.049v45.782c0 4.142 3.357 7.5 7.5 7.5s7.5-3.358 7.5-7.5v-45.782h67.049v45.781c0 4.142 3.357 7.5 7.5 7.5s7.5-3.358 7.5-7.5v-119.68c0-11.81 3.303-23.302 9.419-33.244.641 1.533 1.177 3.108 1.578 4.716l37.592 150.031c.854 3.406 3.911 5.679 7.27 5.679.604 0 1.217-.074 1.829-.227 4.018-1.006 6.459-5.08 5.452-9.098l-7.117-28.404h22.601v30.228c0 4.142 3.357 7.5 7.5 7.5s7.5-3.358 7.5-7.5v-30.228h57.827v30.227c0 4.142 3.357 7.5 7.5 7.5s7.5-3.358 7.5-7.5v-120.298c0-3.029-1.821-5.761-4.618-6.925zm-384.873 48.78h-34.682v-19.968l17.027-33.868 28.203 11.74zm-28.719-70.948h-26.926v-9.925h26.926zm-4.666 15.005-8.797 17.498-8.797-17.498zm39.57-139.813h-28.22v-28.167c14.112 2.941 25.258 14.063 28.22 28.167zm-53.514-41.511h10.295v41.511h-10.295zm-54.195 56.511h118.684v11.943h-118.684zm15.881 65.953v-39.01h35.961v10.269c0 4.142 3.357 7.5 7.5 7.5s7.5-3.358 7.5-7.5v-10.269h35.961v39.011c0 10.438-8.492 18.93-18.93 18.93h-49.062c-10.438-.001-18.93-8.493-18.93-18.931zm18.934 60.967 17.027 33.868v19.968h-57.827v-36.854zm-40.8 87.052v-18.216h57.827v18.216zm72.827 0v-18.216h30.924l-4.564 18.216zm168.173-123.68-15.72-23.976h31.439zm22.105-38.98h-44.211v-20.201h44.211zm57.366-88.425v-44.282c9.222 3.132 15.875 11.874 15.875 22.141s-6.654 19.01-15.875 22.141zm-28.501-129.291-7.28 4.904c-3.436 2.314-4.344 6.975-2.03 10.41 1.449 2.15 3.816 3.311 6.228 3.311 1.441 0 2.898-.415 4.184-1.281l9.635-6.49c5.357 7.19 8.994 15.735 10.277 25.023h-46.621v-46.546c9.537 1.303 18.293 5.086 25.607 10.669zm-61.331-28.93h20.723v64.808h-20.723zm-51.34 39.787 9.631 6.488c1.286.866 2.742 1.281 4.184 1.281 2.411 0 4.779-1.161 6.228-3.311 2.313-3.435 1.405-8.096-2.03-10.41l-7.271-4.898c7.309-5.574 16.059-9.357 25.599-10.668v46.54h-46.621c1.282-9.289 4.919-17.832 10.28-25.022zm-24.607 57.918c-.326 0-.591-.265-.591-.59v-16.717c0-.326.265-.59.591-.59h172.615c.326 0 .591.265.591.59v16.717c0 .326-.265.59-.591.59zm-9.038 38.375c0-10.267 6.653-19.009 15.875-22.141v44.282c-9.221-3.131-15.875-11.874-15.875-22.141zm30.875 45.538v-68.913h128.941v68.913c0 16.446-13.38 29.826-29.826 29.826h-69.289c-16.446 0-29.826-13.379-29.826-29.826zm-25.02 107.171c2.534-2.099 5.381-3.824 8.428-5.092l48.596-20.233 24.967 38.08v45.298h-67.049v-11.99c0-16.607-5.263-32.717-14.942-46.063zm14.944 104.963v-31.91h67.047v31.91zm149.094 0h-67.047v-31.91h67.047zm101.126-56.107-8.797-17.498h17.594zm13.463-32.503h-26.926v-9.925h26.926zm34.904-124.808h-28.22v-28.167c14.111 2.941 25.258 14.063 28.22 28.167zm-53.515-41.511h10.295v41.511h-10.295zm-15 13.351v28.159h-28.22c2.961-14.09 14.094-25.205 28.22-28.159zm-39.194 43.16h118.684v11.943h-118.684zm15.881 65.953v-39.01h35.961v10.269c0 4.142 3.357 7.5 7.5 7.5s7.5-3.358 7.5-7.5v-10.269h35.961v39.011c0 10.438-8.492 18.93-18.93 18.93h-49.062c-10.438-.001-18.93-8.493-18.93-18.931zm18.934 60.967 17.027 33.868v19.968h-34.683l-10.548-42.096zm-9.333 87.052-4.564-18.216h30.924v18.216zm41.36 0v-18.216h11.659c4.143 0 7.5-3.358 7.5-7.5s-3.357-7.5-7.5-7.5h-11.659v-19.968l17.027-33.868 40.8 16.983v36.854h-11.211c-4.143 0-7.5 3.358-7.5 7.5s3.357 7.5 7.5 7.5h11.211v18.216h-57.827z"/><path d="m431.673 301.891c7.966 0 15.291-4.664 18.662-11.881 1.752-3.753.131-8.216-3.622-9.969-3.754-1.753-8.217-.13-9.97 3.622-.915 1.96-2.905 3.228-5.07 3.228s-4.155-1.267-5.07-3.228c-1.753-3.753-6.217-5.375-9.97-3.622-3.753 1.752-5.374 6.216-3.622 9.969 3.371 7.217 10.696 11.881 18.662 11.881z"/><path d="m256 192.684c4.143 0 7.5-3.358 7.5-7.5v-24.133c0-4.142-3.357-7.5-7.5-7.5s-7.5 3.358-7.5 7.5v24.133c0 4.142 3.357 7.5 7.5 7.5z"/><path d="m256 226.715c10.055 0 19.3-5.886 23.555-14.995 1.752-3.753.131-8.216-3.622-9.969-3.752-1.752-8.217-.132-9.97 3.622-1.799 3.853-5.71 6.343-9.963 6.343s-8.164-2.49-9.963-6.343c-1.753-3.752-6.215-5.376-9.97-3.622-3.753 1.753-5.374 6.216-3.622 9.969 4.255 9.109 13.5 14.995 23.555 14.995z"/><path d="m80.327 301.891c7.966 0 15.291-4.664 18.662-11.881 1.752-3.753.131-8.216-3.622-9.969-3.754-1.753-8.217-.13-9.97 3.622-.915 1.96-2.905 3.228-5.07 3.228s-4.155-1.267-5.07-3.228c-1.753-3.753-6.217-5.375-9.97-3.622-3.753 1.752-5.374 6.216-3.622 9.969 3.371 7.217 10.696 11.881 18.662 11.881z"/></g></g></svg>