<svg id="_x33_0" enable-background="new 0 0 64 64" height="512" viewBox="0 0 64 64" width="512" xmlns="http://www.w3.org/2000/svg"><g><g><g><path d="m18.9 36h-5.9-4.05c-.64-1.1-1.43-2-1.95-2-1 0-3 3.34-3 5v-17h56v4h-11-6-12c-.55 0-1 .44-1 .97v12.03 1h-10v-3.05c0-.53-.49-.95-1.1-.95zm-5.9-2c1.66 0 3-1.34 3-3s-2-5-3-5-3 3.34-3 5 1.34 3 3 3z" fill="#cf9e76"/></g><g><path d="m12 58h-4c-.55 0-1.05-.22-1.41-.59-.37-.36-.59-.86-.59-1.41 0-1.1.9-2 2-2h4 8 4c.55 0 1.05.22 1.41.59.37.36.59.86.59 1.41 0 1.1-.9 2-2 2h-2c1.1 0 2 .9 2 2 0 .55-.22 1.05-.59 1.41-.36.37-.86.59-1.41.59h-10c-1.1 0-2-.9-2-2 0-.56.22-1.06.59-1.42.36-.36.86-.58 1.41-.58z" fill="#fcd770"/></g><g><path d="m12 45v9h-4-5c-.55 0-1-.45-1-1v-8c0-.55.45-1 1-1h4 4c.55 0 1 .45 1 1z" fill="#fcd770"/></g><g><path d="m7 42c1.66 0 3-1.34 3-3 0-.8-.46-1.99-1.05-3h4.05 5.9c.61 0 1.1.42 1.1.95v3.05 14h-8v-9c0-.55-.45-1-1-1h-4z" fill="#fcd770"/></g><g><path d="m10 39c0 1.66-1.34 3-3 3s-3-1.34-3-3 2-5 3-5c.52 0 1.31.9 1.95 2 .59 1.01 1.05 2.2 1.05 3z" fill="#ffc729"/></g><g><path d="m16 31c0 1.66-1.34 3-3 3s-3-1.34-3-3 2-5 3-5 3 3.34 3 5z" fill="#ffc729"/></g><g><path d="m34 30h24v28h-24z" fill="#e6e9ed"/></g><g><path d="m43 26-4 4h-5v5l-4 4v-12.03c0-.53.45-.97 1-.97z" fill="#aab2bd"/></g><g><path d="m62 26.97v34.06c0 .53-.45.97-1 .97h-30c-.55 0-1-.44-1-.97v-16.03l4-4v17h2 20 2v-28h-13l4-4h11 1c.55 0 1 .44 1 .97z" fill="#aab2bd"/></g><g><path d="m54 41.7v.96c0 1.37-.94 2.57-2.27 2.91l-1.52.38c.5-.77.79-1.7.79-2.7v-1.53c0-.43-.28-.81-.68-.95-1.53-.51-2.91-1.36-4.05-2.5l-.27-.27-.27.27c-1.14 1.14-2.52 1.99-4.05 2.5-.4.14-.68.52-.68.95v1.53c0 1 .29 1.93.79 2.7l-1.52-.38c-1.33-.34-2.27-1.54-2.27-2.91v-.96c0-1.75.6-3.44 1.69-4.81.18-.23.38-.44.58-.65 1.42-1.41 3.34-2.24 5.36-2.27.14 0 .28-.01.41-.01h.16c2.37 0 4.62 1.07 6.11 2.93 1.09 1.37 1.69 3.06 1.69 4.81z" fill="#b27946"/></g><g><path d="m51.35 50.84c1.08.27 2.07.83 2.85 1.61 1.15 1.15 1.8 2.72 1.8 4.34v1.21h-20v-1.21c0-1.62.65-3.19 1.8-4.34.78-.78 1.77-1.34 2.85-1.61l2.35-.59.01-.04c.11 1 .96 1.79 1.99 1.79h2c1.03 0 1.88-.79 1.99-1.79l.01.04z" fill="#b4dd7f"/></g><g><path d="m43.65 47.66 2.35.59c.85 0 1.65-.21 2.35-.59l.64 2.54v.01c-.11 1-.96 1.79-1.99 1.79h-2c-1.03 0-1.88-.79-1.99-1.79 0 0 0 0 0-.01z" fill="#f0d0b4"/></g><g><path d="m51 41.72v1.53c0 1-.29 1.93-.79 2.7-.47.72-1.1 1.31-1.86 1.71-.7.38-1.5.59-2.35.59l-2.35-.59c-.44-.23-.84-.53-1.19-.88-.25-.25-.47-.53-.67-.83-.5-.77-.79-1.7-.79-2.7v-1.53c0-.43.28-.81.68-.95 1.53-.51 2.91-1.36 4.05-2.5l.27-.27.27.27c1.14 1.14 2.52 1.99 4.05 2.5.4.14.68.52.68.95z" fill="#f0d0b4"/></g><g><path d="m49 26-4 4-5.48 5.49-5.52 5.51-4 4v-5-1l4-4 5-5 4-4z" fill="#ff826e"/></g><g><path d="m62 19v2c0 .55-.45 1-1 1h-1-56-1c-.55 0-1-.45-1-1v-2c0-.55.45-1 1-1h1 24 4 4 24 1c.55 0 1 .45 1 1z" fill="#b27946"/></g><g><path d="m23.77 9.99c.53.62 1.34 1.01 2.23 1.01 0 1.31.83 2.42 2 2.82v.01 4.17h-24c0-2.21 1.22-4.41 2.31-5.95.92-1.3 2.44-2.05 4.04-2.05h13.41z" fill="#cf9e76"/></g><g><path d="m60 18h-24v-5.77c.42-.37.74-.88.89-1.45.34.14.72.22 1.11.22.89 0 1.7-.39 2.23-1.01l.01.01h13.41c1.6 0 3.12.75 4.04 2.05 1.09 1.54 2.31 3.74 2.31 5.95z" fill="#cf9e76"/></g><g><path d="m36 12.23v5.77h-4v-5.77c.53.48 1.23.77 2 .77s1.47-.29 2-.77z" fill="#ccd1d9"/></g><g><path d="m28 18v-4.17-.01c.31.12.65.18 1 .18 1.29 0 2.39-.81 2.81-1.96.06.07.13.13.19.19v5.77z" fill="#ccd1d9"/></g><g><path d="m27.11 5.22c.34-1.28 1.5-2.22 2.89-2.22.68 0 1.3.23 1.8.61.72-.98 1.89-1.61 3.2-1.61 1.92 0 3.52 1.35 3.91 3.15 1.22.38 2.09 1.51 2.09 2.85 0 .77-.29 1.46-.77 1.99-.53.62-1.34 1.01-2.23 1.01-.39 0-.77-.08-1.11-.22-.15.57-.47 1.08-.89 1.45-.53.48-1.23.77-2 .77s-1.47-.29-2-.77c-.06-.06-.13-.12-.19-.19-.42 1.15-1.52 1.96-2.81 1.96-.35 0-.69-.06-1-.18-1.17-.4-2-1.51-2-2.82-.89 0-1.7-.39-2.23-1.01-.48-.53-.77-1.22-.77-1.99 0-1.66 1.34-3 3-3 .39 0 .77.08 1.11.22z" fill="#ff826e"/></g></g><g><path d="m63 21v-2c0-1.103-.897-2-2-2h-.073c-.291-2.134-1.436-4.143-2.421-5.527-1.1-1.549-2.915-2.473-4.853-2.473h-11.795c.085-.321.142-.653.142-1 0-1.562-.888-2.945-2.261-3.597-.676-2.001-2.589-3.403-4.739-3.403-1.271 0-2.489.488-3.4 1.337-.501-.222-1.042-.337-1.6-.337-1.466 0-2.786.802-3.48 2.035-2.382-.324-4.52 1.587-4.52 3.965 0 .347.058.679.142 1h-11.795c-1.938 0-3.753.924-4.854 2.473-.984 1.384-2.129 3.393-2.42 5.527h-.073c-1.103 0-2 .897-2 2v2c0 1.103.897 2 2 2v16c0 1.859 1.28 3.411 3 3.858v.142h-3c-1.103 0-2 .897-2 2v8c0 1.103.897 2 2 2h2.184c-.112.314-.184.648-.184 1 0 1.654 1.346 3 3 3h1.184c-.112.314-.184.648-.184 1 0 1.654 1.346 3 3 3h10c1.654 0 3-1.346 3-3 0-.395-.081-.77-.22-1.116 1.275-.346 2.22-1.501 2.22-2.884 0-1.654-1.346-3-3-3h-3v-12h8v20.027c0 1.088.897 1.973 2 1.973h30c1.103 0 2-.885 2-1.973v-34.054c0-1.088-.897-1.973-2-1.973v-2c1.103 0 2-.897 2-2zm-6.124-8.368c.805 1.132 1.729 2.731 2.021 4.368h-21.897v-4.372c.179-.205.344-.423.479-.663 1.189.164 2.317-.232 3.149-.964h13.024c1.293-.001 2.498.609 3.224 1.631zm-25.876 1.804v2.564h-2v-2c.722 0 1.401-.215 2-.564zm2-.565c.324.084.66.129 1 .129.344 0 .678-.048 1-.131v3.131h-2zm-7-7.871c.247 0 .5.05.73.145l1.054.433.292-1.101c.232-.87 1.023-1.477 1.924-1.477.432 0 .845.141 1.195.406l.809.615.602-.819c.553-.753 1.448-1.202 2.394-1.202 1.403 0 2.636.993 2.933 2.362l.124.569.557.173c.828.259 1.386 1.021 1.386 1.896 0 1.103-.897 2-2 2-.247 0-.499-.05-.729-.145l-1.054-.435-.293 1.103c-.232.87-1.023 1.477-1.924 1.477-.562 0-1.077-.226-1.452-.635l-1.112-1.214-.565 1.546c-.285.78-1.037 1.303-1.871 1.303-1.103 0-2-.897-2-2v-1h-1c-1.103 0-2-.897-2-2s.897-2 2-2zm-18.876 6.632c.726-1.022 1.931-1.632 3.223-1.632h13.013c.49.432 1.084.747 1.742.898.252 1.093.955 2.012 1.898 2.56v2.542h-21.898c.293-1.637 1.217-3.236 2.022-4.368zm-4.124 6.368h58l.001 2h-58.001zm2 20c0-1.129 1.314-3.39 2-3.931.686.541 2 2.802 2 3.931 0 1.103-.897 2-2 2s-2-.897-2-2zm-2 6h8v8h-8zm22 11c0 .552-.449 1-1 1h-5v2h3c.551 0 1 .448 1 1s-.449 1-1 1h-10c-.552 0-1-.448-1-1 0-.55.446-.997.996-1h3.004v-2h-3v-.001c-.003 0-.006.001-.01.001h-3.99c-.551 0-1-.448-1-1s.449-1 1-1h16c.551 0 1 .448 1 1zm-12-3v-8c0-1.103-.897-2-2-2h-3v-.142c1.72-.447 3-1.999 3-3.858 0-.517-.179-1.238-.474-2h8.378c.05 0 .084.012.096-.005v16.005zm0-20c-1.103 0-2-.897-2-2 0-1.128 1.314-3.39 2-3.931.686.541 2 2.802 2 3.931 0 1.103-.897 2-2 2zm24.449 5.966c-.292.878-.449 1.802-.449 2.735v.956c0 1.839 1.246 3.436 3.03 3.881l1.165.291c.368.493.808.927 1.308 1.287l-.328 1.31-1.768.442c-1.256.313-2.402.962-3.316 1.877-1.348 1.35-2.091 3.142-2.091 5.048v-15.379zm10.509 11.241c-.098.449-.48.793-.958.793h-2c-.478 0-.86-.344-.958-.793l.299-1.194c.528.152 1.083.239 1.659.239s1.132-.086 1.659-.239zm-1.958-2.956c-2.206 0-4-1.794-4-4v-1.53c1.473-.49 2.845-1.291 4-2.329 1.155 1.038 2.526 1.838 4 2.329v1.53c0 2.206-1.794 4-4 4zm4.633-7.427c-1.37-.457-2.632-1.237-3.652-2.258l-.981-.98-.98.98c-1.02 1.021-2.283 1.801-3.651 2.257-.819.273-1.369 1.035-1.369 1.898v1.53c0 .41.042.811.121 1.198-.675-.331-1.121-1.016-1.121-1.792v-.956c0-1.516.521-3.002 1.468-4.186 1.268-1.584 3.156-2.513 5.187-2.548l.407-.008c2.107-.03 4.156.913 5.47 2.556.947 1.184 1.468 2.671 1.468 4.186v.956c0 .776-.446 1.461-1.121 1.792.079-.387.121-.788.121-1.198v-1.53c0-.863-.55-1.625-1.367-1.897zm-13.633 16.969c0-1.372.535-2.662 1.505-3.633.658-.658 1.483-1.125 2.387-1.352l1.49-.373c.511.928 1.487 1.565 2.618 1.565h2c1.131 0 2.107-.637 2.618-1.564l1.491.373c.903.227 1.729.693 2.387 1.352.969.97 1.504 2.26 1.504 3.632v.207h-18zm17.91-5.047c-.915-.915-2.061-1.563-3.316-1.877l-1.769-.442-.328-1.31c.499-.36.94-.794 1.308-1.287l1.165-.291c1.784-.445 3.03-2.042 3.03-3.881v-.956c0-1.968-.677-3.898-1.907-5.436-1.7-2.125-4.351-3.367-7.073-3.306l-.404.008c-.907.016-1.789.179-2.628.458l2.426-2.426h11.586v25.793c0-1.906-.743-3.698-2.09-5.047zm-23.91-9.16v-3.172l12.425-12.425 3.175-.003zm4-10v-1.586h1.586zm3.586-3.586h-5.586v5.586l-2 2v-9.586l9.595-.009zm22.414 32h-30v-15.586l2-2v15.586h26v-30h-11.586l2.016-2.016 11.57-.011zm-2-36h-28c-1.103 0-2 .885-2 1.973v12.027h-8v-2.053c0-1.073-.94-1.947-2.096-1.947h-4.904v-.142c1.72-.447 3-1.999 3-3.858 0-1.789-2.092-6-4-6s-4 4.211-4 6c0 1.859 1.28 3.411 3 3.858v.142h-2.494c-.73-1.122-1.636-2-2.506-2-.678 0-1.378.537-2 1.303v-11.303h54z"/><path d="m34 5h2v2h-2z"/><path d="m28 7h2v2h-2z"/></g></g></svg>