<svg id="Layer_1" enable-background="new 0 0 512 512" height="512" viewBox="0 0 512 512" width="512" xmlns="http://www.w3.org/2000/svg"><path d="m496.75 317.86-.71-.98c-5.28-7.03-12.99-11.58-21.71-12.83-5.88-.84-11.74-.1-17.08 2.08-1.01-2.4-2.32-4.69-3.92-6.82-.01-.01-.02-.02-.03-.03l-.68-.9c-10.88-14.5-31.57-17.46-46.13-6.59l-53.22 39.88c-2.24-.48-4.57-.75-6.95-.75h-132.9c-12.14 0-22.88 1.41-34.82 4.57l-53.05 13.99v-29.1c0-4.42-3.58-8-8-8h-100.73c-4.42 0-8 3.58-8 8v183.62c0 4.42 3.58 8 8 8h100.73c4.42 0 8-3.58 8-8v-10.54h159.62c27.61 0 56.91-3.2 84.09-26.41l121.27-103.49c14.1-12 16.76-31.64 6.22-45.7zm-80.69-13.27c7.5-5.6 18.16-4.08 23.78 3.41l.68.9c1.44 1.92 2.38 4.02 2.85 6.28l-64.12 48.05c-.17-9.17-4.11-17.43-10.33-23.31zm-306.51 191.41h-84.73v-167.63h84.73zm370.61-144.61-121.28 103.5c-21.95 18.74-45.34 22.58-73.71 22.58h-159.62v-111.45l57.14-15.07c10.7-2.83 19.89-4.04 30.73-4.04h132.88c9.34 0 16.95 7.59 16.95 16.92v3.09c0 9.33-7.6 16.92-16.95 16.92h-114.63c-4.42 0-8 3.58-8 8s3.58 8 8 8h114.63c8.4 0 16.07-3.15 21.89-8.34l91.3-68.41c3.6-2.71 8.06-3.84 12.56-3.2 4.48.64 8.44 2.97 11.15 6.55l.72.99c5.43 7.2 3.81 17.51-3.76 23.96zm-412.99 82.82c-10.94 0-19.83 8.89-19.83 19.82 0 10.94 8.9 19.85 19.83 19.85 10.95 0 19.86-8.9 19.86-19.85 0-10.93-8.91-19.82-19.86-19.82zm0 23.66c-2.11 0-3.83-1.73-3.83-3.85 0-2.11 1.72-3.82 3.83-3.82 2.13 0 3.86 1.71 3.86 3.82 0 2.13-1.73 3.85-3.86 3.85zm27.23-288.17c2.61 3.56 7.61 4.34 11.17 1.74l20.61-15.03v143.92c0 4.42 3.58 8 8 8h241.56c4.42 0 8-3.58 8-8v-143.91l20.61 15.02c1.42 1.04 3.07 1.54 4.71 1.54 2.47 0 4.9-1.14 6.47-3.28l21.26-29.11c1.25-1.71 1.77-3.86 1.44-5.95-.33-2.1-1.48-3.98-3.19-5.23l-175.38-127.87c-2.81-2.05-6.62-2.05-9.43 0l-33.86 24.69v-5.58c0-4.42-3.58-8-8-8h-67.29c-4.42 0-8 3.58-8 8v26.53c0 4.42 3.58 8 8 8h2.02v24.48l-68.24 49.75c-1.72 1.25-2.86 3.13-3.19 5.23s.19 4.24 1.45 5.96zm126.68 122.63v-98.66h67.73v98.66zm146.66 0h-62.93v-106.66c0-4.42-3.58-8-8-8h-83.73c-4.42 0-8 3.58-8 8v106.66h-62.9v-147.58l112.77-82.23 112.79 82.24zm-218.66-263.69h51.29v9.25l-1.76 1.28h-.23-47.28-2.02zm10.01 26.54h17.57l-17.57 12.81zm95.85-37.28 164.19 119.72-11.82 16.19-147.65-107.66c-2.81-2.05-6.62-2.05-9.43 0l-147.63 107.66-11.84-16.2z"/><path d="m24.82 496h84.73v-167.63h-84.73zm42.35-61.79c10.95 0 19.86 8.89 19.86 19.82 0 10.94-8.91 19.85-19.86 19.85-10.94 0-19.83-8.9-19.83-19.85-.01-10.93 8.89-19.82 19.83-19.82z" fill="#2d5871"/><path d="m67.17 457.87c2.13 0 3.86-1.73 3.86-3.85 0-2.11-1.73-3.82-3.86-3.82-2.11 0-3.83 1.71-3.83 3.82-.01 2.13 1.72 3.85 3.83 3.85z" fill="#1d4859"/><path d="m379.25 363.23 64.12-48.05c-.47-2.25-1.41-4.36-2.85-6.28l-.68-.9c-5.62-7.5-16.28-9.01-23.78-3.41l-47.14 35.33c6.22 5.88 10.16 14.14 10.33 23.31z" fill="#fed9a8"/><path d="m483.21 326.44c-2.71-3.59-6.67-5.91-11.15-6.55-4.49-.64-8.95.49-12.56 3.2l-91.3 68.41c-5.82 5.18-13.5 8.34-21.89 8.34h-114.64c-4.42 0-8-3.58-8-8s3.58-8 8-8h114.63c9.34 0 16.95-7.59 16.95-16.92v-3.09c0-9.33-7.6-16.92-16.95-16.92h-132.88c-10.84 0-20.04 1.21-30.73 4.04l-57.14 15.07v111.44h159.62c28.37 0 51.76-3.84 73.71-22.58l121.28-103.49c7.58-6.46 9.2-16.76 3.77-23.97z" fill="#fed9a8"/><path d="m221.08 193.67h67.73v98.66h-67.73z" fill="#f1ba84"/><path d="m142.18 144.75v147.58h62.9v-106.66c0-4.42 3.58-8 8-8h83.73c4.42 0 8 3.58 8 8v106.66h62.93v-147.57l-112.8-82.24z" fill="#e1effb"/><path d="m198.38 39.18h.23l1.76-1.29v-9.25h-51.29v10.54h2.01z" fill="#f1ba84"/><path d="m102.6 153.81 147.63-107.66c2.81-2.05 6.62-2.05 9.43 0l147.66 107.65 11.82-16.19-164.2-119.71-164.18 119.71z" fill="#ff4c4c"/><path d="m176.67 55.18h-17.58v12.81z" fill="#de9252"/></svg>