<svg id="Layer_1" enable-background="new 0 0 500 500" viewBox="0 0 500 500" xmlns="http://www.w3.org/2000/svg"><g clip-rule="evenodd" fill-rule="evenodd"><ellipse cx="385.093" cy="112.037" fill="#f0b16e" rx="24.269" ry="24.269" transform="matrix(.23 -.973 .973 .23 187.577 461.088)"/><path d="m321.019 34.326 28.276 61.265c10.351 22.427 12.983 37.824 40.123 44.038 9.189 2.104 19.44 2.345 30.399 1.344 6.051-.553 11.125 4.377 10.746 10.442l-.709 11.336-70.38 83.077-25.758-52.966c-.771-48.016-11.988-90.507-24.851-138.039z" fill="#19cfba"/><ellipse cx="118.913" cy="112.037" fill="#f0b16e" rx="24.269" ry="24.269" transform="matrix(.707 -.707 .707 .707 -44.394 116.899)"/><path d="m182.987 34.326-28.276 61.265c-10.351 22.427-12.983 37.824-40.123 44.038-9.189 2.104-19.44 2.345-30.399 1.344-6.051-.553-11.125 4.377-10.746 10.442l.709 11.336 70.38 83.077 25.758-52.966c.771-48.016 11.988-90.507 24.851-138.039z" fill="#19cfba"/><path d="m320.614 30.672c3.149 1.01 5.306 2.543 6.659 5.723 1.162 2.732 1.087 5.541-.22 8.207-15.354 31.317-36.476 70.362-42.531 101.423-3.973 20.378-5.365 43.753-5.49 68.602h-.51l-26.518-26.556-26.518 26.556h-.51c-.125-24.849-1.518-48.224-5.49-68.602-6.055-31.061-27.178-70.106-42.531-101.423-2.664-5.433.085-11.891 5.846-13.74l.593-.19c4.523-1.451 9.323.444 11.634 4.594 10.109 18.149 21.705 32.691 34.876 43.405 13.011 10.584 31.189 10.584 44.2 0 13.171-10.714 24.767-25.256 34.876-43.405 2.311-4.149 7.11-6.044 11.634-4.594z" fill="#fa6e85"/><path d="m255.692 178.669-.536.543c-3.566 3.612-4.171 9.032-1.487 13.341 18.92 30.38 34.549 48.831 34.371 87.648-.152 33.043-13.864 82.502-22.079 118.35-1.074 4.691 1.781 9.392 6.438 10.602l1.442.375c3.973 1.032 8.005-.69 10.007-4.273l40.635-72.723-10.729 70.687c-.87 5.73 3.284 10.918 9.066 11.324l1.638.115c4.325.303 8.187-2.099 9.826-6.114 18.35-44.943 33.34-90.784 45.833-137.288 1.689-6.289 4.06-11.414 7.758-16.773 18.263-26.468 35.415-54.132 51.487-82.959 2.762-4.953 1.258-11.159-3.464-14.299l-.81-.539c-4.916-3.269-11.567-1.989-14.919 2.87-8.486 12.304-17.792 23.864-27.894 34.698-13.351 14.32-27.614 29.226-48.006 32.02-23.528 3.224-31.499-5.95-46.175-20.626l-27.029-27.029c-4.277-4.274-11.124-4.252-15.373.05z" fill="#ffbf31"/><circle cx="344.868" cy="201.6" fill="#f0b16e" r="24.269"/><path d="m248.314 178.669.536.543c3.566 3.612 4.17 9.032 1.487 13.341-18.92 30.38-34.549 48.831-34.371 87.648.152 33.043 13.864 82.502 22.079 118.35 1.074 4.691-1.781 9.392-6.438 10.602l-1.442.375c-3.973 1.032-8.005-.69-10.007-4.273l-40.635-72.723 10.729 70.687c.87 5.73-3.284 10.918-9.066 11.324l-1.638.115c-4.325.303-8.187-2.099-9.826-6.114-18.351-44.943-33.34-90.784-45.833-137.288-1.689-6.289-4.06-11.414-7.758-16.773-18.263-26.468-35.415-54.132-51.487-82.959-2.761-4.953-1.258-11.159 3.464-14.299l.81-.539c4.916-3.269 11.567-1.989 14.919 2.87 8.486 12.304 17.792 23.864 27.894 34.698 13.351 14.32 27.614 29.226 48.006 32.02 23.528 3.224 31.499-5.95 46.175-20.626l27.029-27.029c4.277-4.274 11.125-4.252 15.373.05z" fill="#60b7fe"/><ellipse cx="159.138" cy="201.6" fill="#f0b16e" rx="24.269" ry="24.269" transform="matrix(.383 -.924 .924 .383 -88.016 271.476)"/><circle cx="252.003" cy="62.341" fill="#f0b16e" r="24.269"/><path d="m103.23 296.008c2.738 2.587 2.866 6.9.285 9.66l-6.134 6.497c-2.556 2.724-6.934 2.857-9.631.288-2.74-2.588-2.866-6.9-.288-9.602l6.136-6.555c2.582-2.702 6.894-2.875 9.632-.288zm-29.881 44.446c-3.448-1.495-5.02-5.52-3.513-8.97l3.176-7.245c1.507-3.45 5.525-5.003 8.971-3.508 3.448 1.495 5.02 5.52 3.513 8.97l-3.176 7.245c-1.55 3.559-5.692 4.996-8.971 3.508zm-1.761 29.037c-3.764 0-6.814-3.047-6.814-6.842v-7.532c0-3.737 3.05-6.785 6.814-6.785 3.762 0 6.812 3.047 6.812 6.785v7.532c0 3.795-3.05 6.842-6.812 6.842zm10.395 27.542c-3.279 1.488-7.422.05-8.971-3.507l-3.176-7.245c-1.507-3.45.065-7.475 3.513-8.97 3.445-1.495 7.464.057 8.971 3.507l3.176 7.245c1.506 3.45-.065 7.475-3.513 8.97zm21.532 15.122c4.044 4.235 1.079 11.442-4.957 11.442-1.81 0-3.618-.69-4.959-2.127l-6.136-6.497c-2.578-2.76-2.453-7.072.288-9.66 2.738-2.53 7.05-2.415 9.631.287zm30.474 30.244c-1.961 3.248-6.117 4.243-9.366 2.242l-8.679-5.29c-3.207-1.955-4.216-6.152-2.25-9.372 1.967-3.22 6.163-4.197 9.37-2.242l8.677 5.29c3.208 1.955 4.216 6.152 2.248 9.372zm38.54 15.295c-1.265 3.608-5.235 5.409-8.694 4.14l-10.626-3.737c-3.549-1.265-5.406-5.117-4.151-8.682 1.253-3.565 5.148-5.405 8.694-4.14l10.626 3.737c3.549 1.264 5.406 5.174 4.151 8.682zm43.943 8.854c-.63 3.831-4.297 6.198-7.825 5.635l-11.854-1.955c-3.712-.632-6.228-4.14-5.62-7.82.611-3.737 4.115-6.21 7.827-5.635l11.853 1.955c3.713.633 6.228 4.14 5.619 7.82zm46.475 1.495c.076 3.795-2.911 6.9-6.671 6.957h-12.553c-3.762-.058-6.75-3.162-6.671-6.957.079-3.737 3.196-6.727 6.952-6.67 4.09.115 7.901.115 11.991 0 3.763-.057 6.874 2.933 6.952 6.67zm45.877-5.635c.611 3.68-1.904 7.187-5.617 7.82-2.25.377-11.352 2.013-12.964 2.013-3.279 0-6.168-2.358-6.716-5.692-.611-3.68 1.905-7.188 5.62-7.82l11.853-1.955c3.714-.575 7.216 1.897 7.824 5.634zm42.118-12.994c1.256 3.565-.602 7.417-4.15 8.682l-10.626 3.737c-3.466 1.272-7.415-.53-8.694-4.14-1.256-3.508.602-7.417 4.151-8.682l10.626-3.737c3.545-1.265 7.44.575 8.693 4.14zm35.364-19.435c1.965 3.22.957 7.417-2.25 9.372l-8.677 5.29c-3.245 1.997-7.39 1.016-9.368-2.242-1.965-3.22-.959-7.417 2.249-9.372l8.678-5.29c3.207-1.955 7.4-.978 9.368 2.242zm25.943-24.666c2.738 2.588 2.866 6.9.287 9.66l-6.136 6.497c-2.561 2.729-6.94 2.852-9.631.287-2.737-2.587-2.866-6.9-.285-9.602l6.136-6.555c2.582-2.702 6.892-2.817 9.629-.287zm17.915-19.032-3.176 7.245c-1.534 3.52-5.602 5.001-8.973 3.507-3.445-1.495-5.018-5.52-3.511-8.97l3.176-7.245c1.507-3.45 5.525-5.002 8.97-3.507 3.448 1.495 5.021 5.52 3.514 8.97zm5.062-31.164v7.532c0 3.795-3.05 6.842-6.812 6.842-3.764 0-6.815-3.047-6.815-6.842v-7.532c0-3.737 3.05-6.785 6.815-6.785 3.763 0 6.812 3.047 6.812 6.785zm-20.721-25.415c-1.507-3.45.065-7.475 3.511-8.97 3.447-1.495 7.466.057 8.973 3.508l3.176 7.245c1.985 4.535-1.441 9.545-6.24 9.545-2.625 0-5.125-1.495-6.244-4.082zm-1.968-26.851c4.04 4.234 1.077 11.442-4.957 11.442-1.812 0-3.621-.69-4.959-2.128l-6.136-6.497c-2.581-2.76-2.452-7.072.285-9.66 2.738-2.587 7.05-2.415 9.631.288zm15.251-135.811c2.403-4.232-4.497-8.514-7.264-4.542-8.434 12.247-17.847 23.977-27.981 34.844-9.975 10.695-21.879 23.459-37.695 29.841-3.146 1.61-6.603 2.703-10.255 3.105-4.806.79-7.99 1.265-12.75 1.265-18.683 0-27.754-9.142-39.692-21.102l-28.275-28.289c-3.323-3.357-8.807 1.443-6.458 5.232 18.194 29.352 34.921 48.933 34.735 89.582-.15 32.778-13.26 80.648-21.825 117.584-.229.977.394 2.012 1.386 2.242 1.196.308 2.676 1.079 3.569-.518l39.849-71.355c3.644-6.491 13.822-3.157 12.684 4.37l-10.523 69.343c-.254 1.674.96 3.131 2.632 3.278 1.754.153 3.599.426 4.459-1.667 17.162-42.031 31.775-85.787 44.675-133.856 1.86-6.9 4.505-12.65 8.58-18.515 17.617-25.529 34.489-52.726 50.149-80.842zm-185.206 20.354c2.357-3.779-3.133-8.592-6.457-5.232l-28.275 28.289c-15.479 15.508-24.975 24.349-52.445 19.837-3.652-.402-7.106-1.495-10.253-3.105-15.817-6.382-27.72-19.147-37.695-29.841-10.134-10.867-19.548-22.597-27.982-34.844-2.809-4.012-9.635.324-7.263 4.542 15.657 28.117 32.529 55.313 50.149 80.843 4.074 5.865 6.72 11.615 8.58 18.515 12.899 48.069 27.512 91.825 44.675 133.856.858 2.094 2.699 1.821 4.456 1.667 1.675-.147 2.889-1.605 2.635-3.278l-10.522-69.343c-1.133-7.491 9.043-10.883 12.683-4.37l39.849 71.355c.454.805 1.258 1.15 2.154.92 1.198-.324 3.254-.69 2.798-2.645-8.58-36.829-21.673-85.021-21.822-117.584-.187-40.875 16.631-60.209 34.735-89.582zm-157.774-40.191c12.297 1.15 22.748.632 31.952-1.438 30.335-6.878 33.977-25.346 44.013-46.976l16.506-35.764c1.716 3.392 3.459 6.9 5.206 10.465-9.449 35.764-15.915 65.203-18.384 96.252-1.682-.345-3.41-.46-5.173-.46-16.684 0-30.281 13.397-30.598 30.014-13.1-12.597-27.543-29.845-37.639-44.504-2.134-3.105-5.123-5.29-8.44-6.44.333-.568 1.351-1.269 2.557-1.149zm34.672-52.151c-9.366 0-16.987 7.647-16.987 17.02 0 13.35 14.951 21.669 26.474 14.087.01-.141 7.502-4.528 7.502-14.087 0-9.373-7.621-17.02-16.989-17.02zm57.869 80.382c1.786-27.197 6.803-52.956 14.314-82.97 16.66 35.632 21.84 53.404 24.113 90.79l-17.577 17.594c-4.067 4.082-7.445 7.417-10.738 10.12 5.005-12.901.747-27.347-10.112-35.534zm-26.554 39.329c-5.272-2.875-8.854-8.452-8.854-14.892 0-9.372 7.623-16.962 16.989-16.962s16.987 7.59 16.987 16.962-7.621 17.02-16.987 17.02c-2.366 0-6.003-1.266-8.135-2.128zm31.644-174.22c.768-1.872 4.368-2.95 5.734-.46 10.386 18.629 22.451 33.636 35.856 44.504 15.291 12.477 36.653 12.477 51.944 0 13.406-10.867 25.47-25.874 35.855-44.504 1.764-3.195 7.371-.634 5.656 2.817-15.592 31.372-36.322 70.661-42.279 101.197-1.595 8.165-2.822 16.962-3.713 26.737-6.465-4.864-15.291-4.506-21.49.632-6.198-5.129-14.999-5.498-21.495-.632-.89-9.775-2.116-18.572-3.71-26.737-6.105-31.302-26.682-69.389-42.28-101.197-.512-1.034-.269-1.954-.078-2.357zm67.562 5.808c-9.368 0-16.989 7.59-16.989 16.962 0 8.797 6.689 16.042 15.235 16.904 10.447.784 18.741-6.9 18.741-16.904 0-9.372-7.621-16.962-16.987-16.962zm58.334 46.114c7.513 30.014 12.531 55.773 14.318 82.97-10.865 8.186-15.115 22.63-10.116 35.534-3.29-2.702-6.668-6.037-10.735-10.12l-17.58-17.594c2.279-37.402 7.448-55.139 24.113-90.79zm34.245 124.311c-9.633 1.11-18.496-6.847-18.496-16.904 0-9.372 7.621-16.962 16.987-16.962 9.368 0 16.987 7.59 16.987 16.962 0 6.44-3.58 12.017-8.849 14.892-2.137.862-4.345 1.552-6.629 2.012zm.514-109.247c4.95 11.452 10.048 22.979 20.455 29.956 14.254 9.558 32.486 11.568 51.643 9.717 1.206-.116 2.22.578 2.556 1.15-3.318 1.15-6.307 3.335-8.441 6.44-10.097 14.66-24.538 31.906-37.639 44.504-.317-16.617-13.916-30.014-30.598-30.014-1.763 0-3.49.115-5.173.46-2.469-31.049-8.935-60.431-18.383-96.252 1.747-3.565 3.492-7.072 5.206-10.465l16.506 35.764c1.4 2.99 2.656 5.923 3.868 8.74zm37.426-12.477c-9.368 0-16.989 7.647-16.989 17.02 0 5.133 2.557 10.297 6.289 13.167 12.077 9.29 27.687.303 27.687-13.167 0-9.373-7.621-17.02-16.987-17.02zm53.595 55.658-2.19-1.38c-.401-9.382-8.596-16.576-17.973-15.697-4.382.402-8.459.575-12.29.517 5.829-5.577 9.469-13.397 9.469-22.079 0-16.904-13.732-30.647-30.611-30.647-11.616 0-21.742 6.497-26.928 16.042l-23.155-50.253c1.42-3.91 1.307-8.107-.352-12.017-5.219-12.253-23.238-14.198-30.162-1.725-5.938 10.637-12.425 19.952-19.383 27.829-1.038-15.927-14.334-28.577-30.539-28.577-16.208 0-29.504 12.649-30.542 28.577-6.958-7.877-13.444-17.192-19.383-27.829-7.064-12.673-25.074-10.327-30.178 1.725-1.631 3.853-1.732 8.107-.334 12.017l-23.159 50.253c-5.186-9.545-15.309-16.042-26.925-16.042-16.879 0-30.611 13.742-30.611 30.647 0 8.682 3.641 16.502 9.47 22.079-3.832.058-7.908-.115-12.29-.517-9.381-.879-17.566 6.315-17.973 15.697l-2.19 1.38c-7.529 5.002-9.977 15.065-5.575 22.999 15.868 28.461 32.971 56.003 50.836 81.877 3.192 4.657 5.177 8.912 6.635 14.375 13.049 48.586 27.841 92.86 45.219 135.466 2.677 6.54 9.671 10.915 16.423 10.177l1.604-.115c9.738-.654 16.589-9.447 15.149-18.917l-4.885-32.199 21.531 38.524c3.503 6.267 10.524 9.315 17.474 7.475l1.415-.345c8.193-2.127 13.133-10.292 11.242-18.515-8.26-36.07-21.338-83.152-21.482-114.594-.154-33.718 12.558-50.454 28.53-75.725 15.945 25.293 28.683 41.933 28.527 75.725-.146 31.471-13.222 78.509-21.481 114.594-1.889 8.222 3.047 16.387 11.241 18.515l1.415.345c6.952 1.84 13.973-1.208 17.474-7.475l21.53-38.524-4.885 32.199c-1.44 9.47 5.414 18.264 15.147 18.917l2.776.173c6.666 0 12.701-4.025 15.252-10.235 17.378-42.606 32.17-86.88 45.22-135.466 1.458-5.462 3.443-9.717 6.635-14.375 17.862-25.874 34.966-53.416 50.837-81.877 4.401-7.934 1.953-17.996-5.575-22.999z" fill="#1e2f3f"/></g></svg>