<svg height="480pt" viewBox="0 0 480 480.01601" width="480pt" xmlns="http://www.w3.org/2000/svg"><path d="m472.007812 128.015625h-464v-16l64-104h336l64 104zm0 0" fill="#eaeae8"/><path d="m136.007812 112.015625h336v96h-336zm0 0" fill="#c3b895"/><path d="m136.007812 208.015625h336v264h-336zm0 0" fill="#ebebeb"/><path d="m8.007812 120.015625h128v360h-128zm0 0" fill="#834b10"/><path d="m8.007812 280.015625h136v200h-136zm0 0" fill="#e4e4e2"/><path d="m8.007812 280.015625h64v200h-64zm0 0" fill="#ebebeb"/><path d="m32.007812 336h16v16h-16zm0 0" fill="#cdcdcd"/><path d="m96.007812 336h16v16h-16zm0 0" fill="#cdcdcd"/><path d="m8.007812 400.015625h112v80h-112zm0 0" fill="#f7ba61"/><path d="m72.007812 400.015625h64v80h-64zm0 0" fill="#dea757"/><path d="m72.007812 216c35.347657 0 64 28.652344 64 64h-128c0-35.347656 28.652344-64 64-64zm0 0" fill="#b6534f"/><path d="m64.007812 216-1.6875 3.375c-9.414062 18.824219-14.3125 39.578125-14.3125 60.625h48c.003907-21.046875-4.898437-41.800781-14.3125-60.625l-1.6875-3.375zm0 0" fill="#e06661"/><path d="m136.007812 208.015625h336v216h-336zm0 0" fill="#fbedbf"/><path d="m397.320312 312.230469c-7.882812 1.59375-13.492187 8.601562-13.3125 16.640625v39.128906h-32v24h48c8.835938 0 16-7.164062 16-16v-48c0-4.710938-2.078124-9.183594-5.683593-12.222656-3.601563-3.039063-8.359375-4.335938-13.003907-3.546875zm0 0" fill="#f7ba61"/><path d="m400.007812 296c-13.253906 0-24-10.746094-24-24s10.746094-24 24-24c13.253907 0 24 10.746094 24 24s-10.746093 24-24 24zm0 0" fill="#f7ba61"/><path d="m424.007812 400c13.253907 0 24-10.746094 24-24v-32c0-4.417969-3.582031-8-8-8-4.417968 0-8 3.582031-8 8v32c0 4.417969-3.582031 8-8 8h-32c-4.417968 0-8 3.582031-8 8v32h16v-24zm0 0" fill="#ea6b65"/><path d="m210.695312 312.230469c7.882813 1.59375 13.492188 8.601562 13.3125 16.640625v39.128906h40v24h-56c-8.835937 0-16-7.164062-16-16v-48c0-4.710938 2.082032-9.183594 5.683594-12.222656 3.601563-3.039063 8.359375-4.335938 13.003906-3.546875zm0 0" fill="#f7ba61"/><path d="m208.007812 296c-13.253906 0-24-10.746094-24-24s10.746094-24 24-24c13.253907 0 24 10.746094 24 24s-10.746093 24-24 24zm0 0" fill="#f7ba61"/><path d="m216.007812 384h-32c-4.417968 0-8-3.582031-8-8v-32c0-4.417969-3.582031-8-8-8-4.417968 0-8 3.582031-8 8v32c0 13.253906 10.746094 24 24 24h24v24h16v-32c0-4.417969-3.582031-8-8-8zm0 0" fill="#ea6b65"/><g fill="#ea9d2d"><path d="m296.007812 264.015625h16v64h-16zm0 0"/><path d="m312.007812 304h-16c-17.671874 0-32-14.328125-32-32h16c0 8.835938 7.164063 16 16 16h16c8.835938 0 16-7.164062 16-16h16c0 17.671875-14.328124 32-32 32zm0 0"/><path d="m304.007812 248c-3.25.019531-6.1875-1.929688-7.433593-4.933594-1.246094-3-.554688-6.457031 1.753906-8.746094 2.296875-2.273437 5.738281-2.9375 8.71875-1.6875.96875.40625 1.863281.980469 2.640625 1.6875 3.09375 3.15625 3.09375 8.203126 0 11.359376-.78125.699218-1.671875 1.269531-2.640625 1.679687-.960937.40625-1.992187.625-3.039063.640625zm0 0"/><path d="m336.007812 256c-1.042968-.015625-2.078124-.234375-3.039062-.640625-.964844-.410156-1.859375-.980469-2.640625-1.679687-3.09375-3.15625-3.09375-8.203126 0-11.359376.777344-.707031 1.671875-1.28125 2.640625-1.6875 2.980469-1.25 6.421875-.585937 8.71875 1.6875 2.308594 2.289063 3 5.746094 1.753906 8.746094-1.246094 3.003906-4.183594 4.953125-7.433594 4.933594zm0 0"/><path d="m272.007812 256c-3.769531-.039062-6.992187-2.730469-7.699218-6.433594-.707032-3.703125 1.292968-7.390625 4.785156-8.816406 3.488281-1.425781 7.5-.195312 9.589844 2.945312 2.085937 3.140626 1.671875 7.316407-.996094 9.984376-1.535156 1.457031-3.5625 2.285156-5.679688 2.320312zm0 0"/></g><path d="m248.007812 352.015625h112v72h-112zm0 0" fill="#eaeae8"/><path d="m272.007812 376.015625h16v48h-16zm0 0" fill="#dbdbdb"/><path d="m320.007812 376.015625h16v48h-16zm0 0" fill="#dbdbdb"/><path d="m240.007812 368.015625h8v24h-8zm0 0" fill="#e6ad5a"/><path d="m360.007812 368.015625h8v24h-8zm0 0" fill="#e6ad5a"/><path d="m304.007812 344c-4.417968 0-8-3.582031-8-8v-16c0-4.417969 3.582032-8 8-8 4.417969 0 8 3.582031 8 8v16c0 4.417969-3.582031 8-8 8zm0 0" fill="#cbcbcb"/><path d="m336.007812 352h-64c0-17.671875 14.328126-32 32-32 17.671876 0 32 14.328125 32 32zm0 0" fill="#dbdbdb"/><path d="m273.136719 344c-.714844 2.609375-1.09375 5.296875-1.128907 8h64c-.035156-2.703125-.414062-5.390625-1.128906-8zm0 0" fill="#cbcbcb"/><path d="m136.007812 424.015625h336v56h-336zm0 0" fill="#834b10"/><path d="m8.007812 112h96v48c0 26.507812-21.488281 48-48 48-26.507812 0-48-21.492188-48-48zm0 0" fill="#cbcbcb"/><path d="m104.007812 112h96v48c0 26.507812-21.488281 48-48 48-26.507812 0-48-21.492188-48-48zm0 0" fill="#e06661"/><path d="m280.007812 112h96v48c0 26.507812-21.488281 48-48 48-26.507812 0-48-21.492188-48-48zm0 0" fill="#e06661"/><path d="m376.007812 112h96v48c0 26.507812-21.488281 48-48 48-26.507812 0-48-21.492188-48-48zm0 0" fill="#cbcbcb"/><path d="m136.007812 8.015625-32 104h96v-104zm0 0" fill="#ea6b65"/><path d="m352.007812 8.015625 24 104h-96v-104zm0 0" fill="#ea6b65"/><path d="m344.015625 112.007812c0 57.4375-46.5625 104-104 104s-104-46.5625-104-104 46.5625-104 104-104 104 46.5625 104 104zm0 0" fill="#fbb540"/><path d="m304.007812 160h-40v-120c24.160157 9.664062 40 33.0625 40 59.078125zm0 0" fill="#ebebeb"/><path d="m296.007812 199.527344v-39.527344h-32v53.144531c11.355469-2.707031 22.175782-7.3125 32-13.617187zm0 0" fill="#dbdbdb"/><path d="m240.007812 96h-64v24c0 7.078125 11.121094 13.375 16 17.769531v66.476563c10.027344 5.191406 20.835938 8.703125 32 10.402344v-76.878907c4.871094-4.394531 16-10.691406 16-17.769531zm0 0" fill="#e4e4e2"/><path d="m240.007812 120h-16v-64c0-4.417969 3.582032-8 8-8 4.417969 0 8 3.582031 8 8zm0 0" fill="#e4e4e2"/><path d="m192.007812 120h-16v-64c0-4.417969 3.582032-8 8-8 4.417969 0 8 3.582031 8 8zm0 0" fill="#e4e4e2"/><path d="m264.015625 160h32v8h-32zm0 0" fill="#cbcbcb"/><path d="m400.007812 248c-13.253906 0-24 10.746094-24 24s10.746094 24 24 24c13.253907 0 24-10.746094 24-24s-10.746093-24-24-24zm0 32c-4.417968 0-8-3.582031-8-8s3.582032-8 8-8c4.417969 0 8 3.582031 8 8s-3.582031 8-8 8zm0 0"/><path d="m208.007812 248c-13.253906 0-24 10.746094-24 24s10.746094 24 24 24c13.253907 0 24-10.746094 24-24s-10.746093-24-24-24zm0 32c-4.417968 0-8-3.582031-8-8s3.582032-8 8-8c4.417969 0 8 3.582031 8 8s-3.582031 8-8 8zm0 0"/><path d="m307.046875 232.640625c-2.988281-1.167969-6.378906-.511719-8.71875 1.679687-1.460937 1.535157-2.289063 3.5625-2.320313 5.679688.015626 2.121094.847657 4.15625 2.320313 5.679688 1.511719 1.492187 3.554687 2.328124 5.679687 2.320312 1.039063.015625 2.074219-.175781 3.039063-.558594.972656-.4375 1.867187-1.03125 2.640625-1.761718 3.09375-3.15625 3.09375-8.203126 0-11.359376-.777344-.707031-1.671875-1.273437-2.640625-1.679687zm0 0"/><path d="m332.96875 240.640625c-.96875.40625-1.863281.972656-2.640625 1.679687-1.460937 1.535157-2.289063 3.5625-2.320313 5.679688.011719 1.046875.230469 2.078125.640626 3.039062.367187.988282.9375 1.890626 1.679687 2.640626.777344.707031 1.671875 1.273437 2.640625 1.679687.949219.449219 1.988281.667969 3.039062.640625 2.117188-.03125 4.144532-.859375 5.679688-2.320312.742188-.75 1.3125-1.652344 1.679688-2.640626.449218-.949218.667968-1.988281.640624-3.039062-.03125-2.117188-.859374-4.144531-2.320312-5.679688-2.335938-2.199218-5.734375-2.855468-8.71875-1.679687zm0 0"/><path d="m266.328125 242.320312c-1.460937 1.535157-2.289063 3.5625-2.320313 5.679688.015626 2.121094.847657 4.15625 2.320313 5.679688 3.15625 3.09375 8.207031 3.09375 11.359375 0 1.472656-1.523438 2.304688-3.558594 2.320312-5.679688.019532-3.25-1.929687-6.1875-4.933593-7.433594-3-1.246094-6.457031-.554687-8.746094 1.753906zm0 0"/><path d="m32.007812 336.007812h16v16h-16zm0 0"/><path d="m96.007812 336.007812h16v16h-16zm0 0"/><path d="m479.152344 108.558594c-.097656-.253906-.207032-.503906-.328125-.75l-64-104c-1.457031-2.367188-4.035157-3.808594-6.816407-3.808594h-336c-2.777343 0-5.359374 1.441406-6.816406 3.808594l-64 104c-.121094.246094-.230468.496094-.328125.75-.101562.226562-.207031.441406-.296875.671875-.347656.882812-.5390622 1.820312-.5585935 2.769531v360c0 4.417969 3.5820315 8 7.9999995 8h464c4.417969 0 8-3.582031 8-8v-360c-.019531-.949219-.210937-1.886719-.558593-2.769531-.089844-.230469-.191407-.429688-.296875-.671875zm-111.144532 51.441406c.113282 13.34375-6.488281 25.847656-17.570312 33.28125s-25.160156 8.792969-37.460938 3.621094c22.179688-18.929688 36.039063-45.820313 38.582032-74.871094.058594-.679688 0-1.351562.082031-2.03125h16.367187zm-160.59375 42.238281c-2.253906-.796875-4.453124-1.695312-6.628906-2.664062l-.777344-.375v-61.414063c0-2.269531-.960937-4.429687-2.648437-5.945312-3.398437-2.996094-5.347656-7.308594-5.351563-11.839844v-16h8v8c0 4.417969 3.582032 8 8 8 4.417969 0 8-3.582031 8-8v-8h8v16c-.003906 4.527344-1.953124 8.835938-5.351562 11.832031-1.683594 1.515625-2.648438 3.675781-2.648438 5.945313v67.085937c-2.601562-.65625-5.144531-1.4375-7.65625-2.304687zm-7.40625 173.761719v-48c0-4.417969 3.582032-8 8-8 .464844 0 .933594.039062 1.390626.121094 4.003906.972656 6.765624 4.628906 6.609374 8.742187v39.136719c0 4.417969 3.582032 8 8 8h16v8h-32c-4.417968 0-8-3.582031-8-8zm104-48c10.167969.011719 19.230469 6.417969 22.632813 16h-45.265625c3.402344-9.582031 12.464844-15.988281 22.632812-16zm-32 32h80v56h-16v-40h-16v40h-32v-40h-16v40h-16v-56zm136 16c0 4.417969-3.582031 8-8 8h-32v-8h16c4.417969 0 8-3.582031 8-8v-39.136719c-.152343-4.109375 2.605469-7.757812 6.601563-8.734375 2.347656-.40625 4.753906.246094 6.574219 1.78125 1.789062 1.519532 2.820312 3.746094 2.824218 6.089844zm-40 40v-16h16v16zm-128-16v16h-16v-16zm8 32h216v32h-320v-32zm-232-312h80v40c0 22.089844-17.910156 40-40 40-22.089843 0-40-17.910156-40-40zm52.886719 96.144531c1.042969-.054687 2.066407-.144531 3.113281-.144531 1.046876 0 2.070313.089844 3.113282.144531 7.269531 14.980469 11.558594 31.234375 12.632812 47.855469h-31.488281c1.070313-16.617188 5.359375-32.867188 12.628906-47.847656zm-20.886719 63.855469h16v104h-48v-104zm-32 120h48v64h-48zm64-120h48v104h-48zm23.769532-16c-.867188-14.789062-4-29.359375-9.289063-43.199219 17.6875 7.769531 30.132813 24.089844 32.953125 43.199219zm-63.539063 0h-23.664062c2.820312-19.109375 15.261719-35.425781 32.945312-43.199219-5.285156 13.839844-8.414062 28.410157-9.28125 43.199219zm39.769531 200v-64h48v64zm11.953126-261.113281c4.777343-4.023438 8.847656-8.816407 12.046874-14.183594 5.6875 9.46875 14.035157 17.054687 24 21.816406v16.335938c-9.28125-11.488281-21.863281-19.855469-36.046874-23.96875zm20.046874-42.886719v-40h16.382813c1.59375 23.453125 10.574219 45.796875 25.65625 63.824219 3.984375 4.707031 8.339844 9.082031 13.03125 13.078125-12.304687 5.167968-26.382813 3.804687-37.46875-3.625-11.089844-7.429688-17.699219-19.929688-17.601563-33.277344zm120-18.953125c5.132813-5.808594 7.976563-13.292969 8-21.046875v-64c0-4.417969-3.582031-8-8-8-4.417968 0-8 3.582031-8 8v32h-8v-32c0-4.417969-3.582031-8-8-8-4.417968 0-8 3.582031-8 8v32h-8v-32c0-4.417969-3.582031-8-8-8-4.417968 0-8 3.582031-8 8v64c.023438 7.753906 2.867188 15.230469 8 21.039062v48.855469c-6.546874-4.671875-12.488281-10.148437-17.679687-16.292969-23.910156-28.582031-29.121094-68.414062-13.371094-102.183593s49.621094-55.371094 86.882813-55.417969c2.902344 0 5.820312.132812 8.753906.398438 38.078125 3.371093 70.515625 29.039062 82.550781 65.320312 12.039063 36.285156 1.375 76.25-27.136719 101.714844v-15.433594c4.417969 0 8-3.582031 8-8v-60.902344c.097657-29.320312-17.765624-55.710937-45.023437-66.511718-2.464844-.988282-5.257813-.691407-7.457031.796874-2.195313 1.484376-3.515625 3.964844-3.519532 6.617188v166.601562c-7.925781 1.347657-15.988281 1.703126-24 1.054688zm40 26.953125h16v27.039062c-5.09375 2.960938-10.449218 5.441407-16 7.417969zm24-16h-24v-98.695312c15.082032 10.355468 24.066407 27.496093 24 45.792968zm88 8v-40h80v40c0 22.089844-17.910156 40-40 40-22.089843 0-40-17.910156-40-40zm73.6875-56h-75.289062l-20.34375-88h41.472656zm-91.742187 0h-14.335937c-2.484376-36.433594-22.703126-69.328125-54.089844-88h48.121094zm-183.386719-88c-5.050781 2.976562-9.863281 6.34375-14.398437 10.0625-22.859375 18.992188-37.175781 46.339844-39.753907 75.945312-.054687.664063 0 1.328126-.078124 1.992188h-13.496094l27.082031-88zm-106.085937 0h48.695312l-27.078125 88h-75.777344zm-60.472657 200v-16.871094c5.011719 5.125 10.960938 9.242188 17.519532 12.136719-6.648438 4.210937-12.566406 9.476563-17.519532 15.589844zm448-8v208h-64v-16h24c13.253907 0 24-10.746094 24-24v-32c0-4.417969-3.582031-8-8-8-4.417968 0-8 3.582031-8 8v32c0 4.417969-3.582031 8-8 8h-1.472656c.949219-2.5625 1.445313-5.269531 1.472656-8v-48c.003907-7.066406-3.109374-13.773438-8.503906-18.335938-5.398437-4.5625-12.527344-6.515624-19.496094-5.335937-11.726562 2.257813-20.152343 12.59375-20 24.535156v31.136719h-8v-8c0-4.417969-3.582031-8-8-8h-16.800781c-3.230469-15.699219-15.5-27.96875-31.199219-31.199219v-8.800781c17.671876 0 32-14.328125 32-32h-16c0 8.835938-7.164062 16-16 16v-24h-16v24c-8.835937 0-16-7.164062-16-16h-16c0 17.671875 14.328126 32 32 32v8.800781c-15.699218 3.230469-27.96875 15.5-31.199218 31.199219h-16.800782c-4.417968 0-8 3.582031-8 8v8h-8v-31.136719c.148438-11.9375-8.273437-22.269531-20-24.527343-6.964843-1.175782-14.097656.773437-19.492187 5.332031-5.394531 4.5625-8.507813 11.269531-8.507813 18.332031v48c.027344 2.730469.523438 5.4375 1.472657 8h-1.472657c-4.417968 0-8-3.582031-8-8v-32c0-4.417969-3.582031-8-8-8-4.417968 0-8 3.582031-8 8v32c0 13.253906 10.746094 24 24 24h24v16h-64v-200.640625c13.027344 2.03125 26.34375-.800781 37.417969-7.953125 7.183594 4.421875 14.851563 8.003906 22.855469 10.671875.304688.097656.597656.21875.902344.3125 2.679687.875 5.402344 1.601563 8.144531 2.289063l.800781.183593c5.234375 1.277344 10.550782 2.179688 15.910156 2.703125 3.414063.304688 6.816407.457032 10.207032.457032 20.636718.003906 40.863281-5.753907 58.402344-16.625 12.679687 8.007812 28.058593 10.539062 42.632812 7.019531 14.578125-3.523438 27.105469-12.800781 34.726562-25.714844 8.878907 14.921875 24.191407 24.867187 41.433594 26.902344 17.246094 2.039062 34.453125-4.058594 46.566406-16.5zm0 0"/></svg>