<svg id="Capa_1" enable-background="new 0 0 512 512" height="512" viewBox="0 0 512 512" width="512" xmlns="http://www.w3.org/2000/svg"><g><g><g><path d="m504.5 127.793c0-43.77-36-79.132-80.005-78.091-41.78.988-75.704 35.324-76.215 77.113-.45 36.726 24.454 67.7 58.305 76.546 3.042.795 5.532 2.977 6.793 5.856l10.152 23.175c1.091 2.49 4.623 2.49 5.714 0l10.152-23.174c1.26-2.877 3.745-5.061 6.784-5.855 33.554-8.763 58.32-39.269 58.32-75.57z" fill="#ffe177"/></g><g><path d="m449.503 53.18c17.352 13.737 28.497 34.97 28.497 58.82 0 41.421-33.579 75-75 75-13.514 0-26.181-3.592-37.132-9.847 10.31 12.62 24.478 21.964 40.716 26.208 3.042.795 5.532 2.977 6.793 5.856l10.152 23.175c1.091 2.49 4.623 2.49 5.714 0l10.152-23.174c1.26-2.877 3.745-5.061 6.784-5.854 33.554-8.764 58.32-39.269 58.32-75.57.001-35.09-23.145-64.756-54.996-74.614z" fill="#ffd15b"/></g></g><g><g><path d="m109.935 146.996h9.834v-6.742c0-14.639 11.867-26.507 26.507-26.507h117.12c14.639 0 26.507 11.867 26.507 26.507v6.742h9.834c5.604 0 10.84 1.6 15.282 4.361v-38.069c0-55.027-44.608-99.635-99.635-99.635h-21.094c-55.027 0-99.636 44.608-99.636 99.636v38.069c4.441-2.761 9.676-4.362 15.281-4.362z" fill="#bb5d4c"/></g><g><g><path d="m215.382 13.653h-8.658c29.48 17.304 49.276 49.329 49.276 85.983v14.112h7.395c14.639 0 26.507 11.867 26.507 26.507v6.742h9.834c5.604 0 10.84 1.6 15.282 4.361v-38.069c-.001-55.027-44.609-99.636-99.636-99.636z" fill="#a44f3e"/></g></g><path d="m200.7 327-1-2.445-54.171 47.931c-3.103 2.745-7.992.542-7.992-3.6v-58.949l-57.317 18.771c.19.924.312 1.873.328 2.851.125 7.421-4.801 13.7-11.563 15.656 6.678 1.932 11.565 8.079 11.565 15.379s-4.887 13.447-11.565 15.379c6.678 1.932 11.565 8.079 11.565 15.379s-4.887 13.448-11.565 15.379c6.762 1.956 11.688 8.235 11.563 15.656-.149 8.829-7.721 15.743-16.551 15.743h-29.141c-7.102 0-13.57-2.707-18.433-7.144v49.764c0 8.614 6.983 15.596 15.596 15.596h168.681z" fill="#26a6fe"/><g><g><g><g><g><g><g><path d="m118.729 208.778v-62.821h-8.795c-16.614 0-30.082 13.468-30.082 30.082v9.058c0 16.614 13.468 30.082 30.082 30.082h9.109c-.202-2.108-.314-4.241-.314-6.401z" fill="#ffcebf"/></g><g><path d="m299.736 145.957h-8.794v62.821c0 2.16-.112 4.293-.314 6.4h9.108c16.614 0 30.082-13.468 30.082-30.082v-9.058c-.001-16.613-13.469-30.081-30.082-30.081z" fill="#ffb09e"/></g></g><g><g><path d="m199.7 275.962c0-.706.072-1.395.206-2.062h-15.016c-7.93 0-15.532-1.429-22.566-4.036l-17.992 13.108c-4.27 3.111-6.795 8.075-6.795 13.358v72.557c0 4.143 4.89 6.345 7.992 3.6l54.171-47.931z" fill="#fff"/><path d="m199.7 275.962c0-.679.07-1.341.194-1.984h-15.004c-7.33 0-14.373-1.234-20.955-3.474v24.932c0 1.348.566 2.634 1.559 3.544l34.206 31.346z" fill="#ffcebf"/><path d="m210.149 265.514h48.673c19.243-11.57 32.12-32.646 32.12-56.735v-68.524c0-15.213-12.333-27.546-27.546-27.546h-117.121c-15.213 0-27.546 12.333-27.546 27.546v68.524c0 36.54 29.621 66.161 66.16 66.161h14.862c.515-5.291 4.972-9.426 10.398-9.426z" fill="#ffdfcf"/><g><path d="m255 140.254v68.524c0 24.089-12.877 45.165-32.12 56.735h35.941c19.243-11.57 32.12-32.647 32.12-56.735v-68.524c0-15.213-12.333-27.546-27.546-27.546h-35.941c15.213 0 27.546 12.333 27.546 27.546z" fill="#ffcebf"/></g></g></g></g></g></g></g></g></g><g><g><path d="m200.74 462.337h-85.909c-8.656 0-15.672 7.017-15.672 15.673v20.337h101.581z" fill="#465a61"/></g><g><path d="m488.827 498.347h-289.127v-222.385c0-5.771 4.678-10.448 10.448-10.448h283.903c5.77 0 10.448 4.678 10.448 10.448v206.712c.001 8.656-7.016 15.673-15.672 15.673z" fill="#596c76"/></g><g><path d="m494.052 265.514h-33.5c5.77 0 10.448 4.678 10.448 10.448v206.712c0 8.656-7.017 15.672-15.673 15.672h33.5c8.656 0 15.673-7.017 15.673-15.672v-206.712c0-5.771-4.678-10.448-10.448-10.448z" fill="#465a61"/></g><g><path d="m379.617 399.922h-55.033c-9.937 0-17.992-8.055-17.992-17.992 0-9.937 8.055-17.992 17.992-17.992h55.033c9.937 0 17.992 8.055 17.992 17.992-.001 9.937-8.056 17.992-17.992 17.992z" fill="#6cf5c2"/></g><g><path d="m379.617 363.939h-33.608c9.937 0 17.992 8.055 17.992 17.992s-8.055 17.992-17.992 17.992h33.608c9.937 0 17.992-8.055 17.992-17.992s-8.056-17.992-17.992-17.992z" fill="#00f2a6"/></g></g><g><g><path d="m34.856 316.855h21.512v-32.588c0-14.546-11.792-26.337-26.337-26.337-6.634 0-12.013 5.378-12.013 12.013v53.023c4.567-3.812 10.438-6.111 16.838-6.111z" fill="#ffcebf"/></g><g><g><path d="m30.031 257.929c-2.672 0-5.132.883-7.127 2.359 9.109 4.144 15.446 13.318 15.446 23.979v32.588h18.018v-32.588c0-14.546-11.791-26.338-26.337-26.338z" fill="#ffb09e"/></g></g><g><g><g><g><path d="m80.551 362.594c0-7.3-4.887-13.448-11.565-15.379 6.762-1.956 11.688-8.235 11.563-15.656-.149-8.829-7.721-15.743-16.551-15.743h-29.142c-15.108 0-27.356 12.248-27.356 27.356v69.603c0 15.108 12.248 27.356 27.356 27.356h29.141c8.83 0 16.402-6.915 16.551-15.743.125-7.421-4.801-13.7-11.563-15.656 6.678-1.932 11.565-8.079 11.565-15.379s-4.887-13.448-11.565-15.379c6.679-1.933 11.566-8.081 11.566-15.38z" fill="#ffdfcf"/></g></g></g></g><g><path d="m80.551 393.352c0-7.3-4.887-13.448-11.565-15.379 6.678-1.932 11.565-8.079 11.565-15.379s-4.887-13.448-11.565-15.379c6.762-1.956 11.688-8.235 11.563-15.656-.149-8.829-7.721-15.743-16.551-15.743h-29.142c-2.091 0-4.124.242-6.081.687 12.18 2.766 21.276 13.652 21.276 26.669v69.603c0 13.018-9.095 23.903-21.276 26.669 1.956.444 3.99.687 6.081.687h29.141c8.83 0 16.402-6.915 16.551-15.743.125-7.421-4.801-13.7-11.563-15.656 6.679-1.933 11.566-8.08 11.566-15.38z" fill="#ffcebf"/></g></g><g><path d="m357.121 141.548c-.802-4.064-4.747-6.711-8.811-5.906-4.063.803-6.708 4.747-5.905 8.811 6.308 31.954 30.755 57.926 62.282 66.165.789.206 1.469.808 1.82 1.609l10.152 23.175c1.692 3.863 5.51 6.358 9.727 6.358s8.035-2.495 9.727-6.357l10.152-23.175c.352-.803 1.028-1.403 1.809-1.607 37.639-9.831 63.926-43.891 63.926-82.828 0-23.251-9.162-45.004-25.799-61.252-16.632-16.244-38.621-24.884-61.883-24.337-37.833.896-71.03 27.163-80.731 63.88-1.058 4.005 1.331 8.109 5.336 9.167s8.109-1.33 9.167-5.335c8.005-30.301 35.385-51.978 66.583-52.716 19.223-.433 37.331 6.675 51.048 20.071 13.722 13.403 21.279 31.345 21.279 50.522 0 32.115-21.677 60.207-52.716 68.313-5.262 1.375-9.548 5.058-11.757 10.102l-6.14 14.016-6.14-14.017c-2.209-5.043-6.498-8.725-11.766-10.102-25.999-6.794-46.159-28.209-51.36-54.557z"/><path d="m426.387 154.9c-8.95 0-16.23-7.281-16.23-16.23 0-4.143-3.358-7.5-7.5-7.5s-7.5 3.357-7.5 7.5c0 17.221 14.01 31.23 31.23 31.23s31.23-14.01 31.23-31.23c0-4.143-3.358-7.5-7.5-7.5s-7.5 3.357-7.5 7.5c0 8.949-7.281 16.23-16.23 16.23z"/><path d="m400.934 95.574c-4.142 0-7.5 3.357-7.5 7.5v7.91c0 4.143 3.358 7.5 7.5 7.5s7.5-3.357 7.5-7.5v-7.91c0-4.142-3.358-7.5-7.5-7.5z"/><path d="m451.839 118.484c4.142 0 7.5-3.357 7.5-7.5v-7.91c0-4.143-3.358-7.5-7.5-7.5s-7.5 3.357-7.5 7.5v7.91c0 4.143 3.358 7.5 7.5 7.5z"/><path d="m211.167 248.005c18.449 0 33.458-15.01 33.458-33.459 0-4.143-3.358-7.5-7.5-7.5s-7.5 3.357-7.5 7.5c0 10.179-8.28 18.459-18.458 18.459h-12.663c-10.178 0-18.458-8.28-18.458-18.459 0-4.143-3.358-7.5-7.5-7.5s-7.5 3.357-7.5 7.5c0 18.449 15.009 33.459 33.458 33.459z"/><path d="m168.206 165.572v-16.145c0-4.143-3.358-7.5-7.5-7.5s-7.5 3.357-7.5 7.5v16.145c0 4.143 3.358 7.5 7.5 7.5s7.5-3.357 7.5-7.5z"/><path d="m248.964 173.072c4.142 0 7.5-3.357 7.5-7.5v-16.145c0-4.143-3.358-7.5-7.5-7.5s-7.5 3.357-7.5 7.5v16.145c0 4.143 3.358 7.5 7.5 7.5z"/><path d="m204.835 193.372c4.142 0 7.5-3.357 7.5-7.5s-3.358-7.5-7.5-7.5c-2.69 0-4.878-2.188-4.878-4.878s2.188-4.878 4.878-4.878c4.142 0 7.5-3.357 7.5-7.5s-3.358-7.5-7.5-7.5c-10.961 0-19.878 8.917-19.878 19.878s8.917 19.878 19.878 19.878z"/><path d="m379.617 356.438h-55.033c-14.056 0-25.492 11.436-25.492 25.492s11.436 25.491 25.492 25.491h55.033c14.056 0 25.492-11.436 25.492-25.491-.001-14.056-11.436-25.492-25.492-25.492zm0 35.984h-55.033c-5.785 0-10.492-4.706-10.492-10.491s4.707-10.492 10.492-10.492h55.033c5.785 0 10.492 4.707 10.492 10.492s-4.707 10.491-10.492 10.491z"/><path d="m494.052 258.014h-214.54c8.805-9.777 15.036-21.915 17.611-35.336h2.612c20.723 0 37.582-16.858 37.582-37.581v-9.058c0-12.163-5.812-22.989-14.8-29.862v-32.888c0-59.075-48.061-107.136-107.136-107.136h-21.094c-21.372 0-42.011 6.278-59.686 18.157-3.438 2.311-4.352 6.97-2.042 10.408 2.311 3.438 6.97 4.354 10.409 2.041 15.192-10.21 32.938-15.606 51.319-15.606h21.094c50.804 0 92.136 41.332 92.136 92.136v25.983c-2.512-.531-5.114-.815-7.782-.815h-1.34c-.939-18.492-16.279-33.248-35-33.248h-117.12c-18.722 0-34.062 14.756-35 33.248h-1.34c-2.668 0-5.27.284-7.782.815v-25.983c0-19.564 6.056-38.252 17.513-54.043 2.433-3.353 1.687-8.042-1.666-10.475-3.352-2.435-8.042-1.688-10.475 1.666-13.328 18.369-20.372 40.103-20.372 62.852v32.888c-8.988 6.874-14.8 17.7-14.8 29.862v9.058c0 20.723 16.859 37.581 37.582 37.581h2.619c3.993 20.816 16.769 38.548 34.316 49.167l-6.953 5.066c-6.186 4.506-9.879 11.766-9.879 19.419v8.172l-45.629 14.943c-4.268-6.667-11.854-11.129-20.411-11.129h-.129v-24.049c0-18.658-15.179-33.837-33.837-33.837-10.759 0-19.513 8.753-19.513 19.513v48.31c-6.484 6.333-10.519 15.162-10.519 24.919v69.603c0 8.931 3.38 17.086 8.923 23.26v46.717c0 12.735 10.361 23.096 23.096 23.096h456.808c12.777 0 23.172-10.396 23.172-23.173v-206.713c.001-9.897-8.051-17.948-17.947-17.948zm-195.611-104.557h1.294c12.452 0 22.582 10.13 22.582 22.582v9.058c0 12.451-10.13 22.581-22.582 22.581h-1.294zm-187.212 54.221h-1.294c-12.452 0-22.582-10.13-22.582-22.581v-9.058c0-12.452 10.13-22.582 22.582-22.582h1.294zm15 1.1v-68.524c0-11.053 8.993-20.045 20.046-20.045h117.121c11.053 0 20.046 8.992 20.046 20.045v68.524c0 20.617-10.698 38.773-26.827 49.235h-46.466c-6.814 0-12.752 3.818-15.791 9.426h-9.468c-32.346 0-58.661-26.315-58.661-58.661zm65.971 73.661v30.84l-20.766-19.03v-13.063c4.366.81 8.858 1.254 13.455 1.254h7.311zm-47.163 13.89c0-2.875 1.387-5.603 3.711-7.296l7.686-5.6v12.001c0 3.442 1.456 6.75 3.992 9.073l24.862 22.784-40.252 35.615v-66.577zm-119.519-26.387c0-2.488 2.024-4.513 4.513-4.513 10.387 0 18.837 8.45 18.837 18.837v24.049h-14.012c-3.235 0-6.364.452-9.338 1.281zm-10.518 142.832v-69.603c0-10.949 8.907-19.856 19.856-19.856h29.142c4.914 0 8.974 3.755 9.052 8.369.065 3.836-2.463 7.26-6.148 8.325-3.208.929-5.416 3.865-5.416 7.205s2.208 6.276 5.416 7.205c3.62 1.047 6.149 4.408 6.149 8.174s-2.529 7.127-6.149 8.174c-3.208.929-5.416 3.865-5.416 7.205s2.208 6.276 5.416 7.205c3.62 1.047 6.149 4.408 6.149 8.174 0 3.767-2.529 7.128-6.149 8.175-3.208.929-5.416 3.865-5.416 7.205s2.208 6.276 5.416 7.205c3.685 1.065 6.212 4.488 6.148 8.323-.078 4.615-4.139 8.37-9.052 8.37h-29.142c-10.949.001-19.856-8.906-19.856-19.855zm177.2 78.073h-85.542v-12.837c0-4.507 3.666-8.173 8.172-8.173h77.37zm304.8-8.173c0 4.507-3.666 8.173-8.172 8.173h-281.628v-63.847c0-4.143-3.358-7.5-7.5-7.5s-7.5 3.357-7.5 7.5v27.837h-77.369c-12.777 0-23.172 10.396-23.172 23.173v12.837h-59.639c-4.464 0-8.096-3.632-8.096-8.096v-36.887c3.441 1.14 7.114 1.766 10.933 1.766h29.142c13.045 0 23.834-10.37 24.05-23.117.1-5.938-2.051-11.518-5.753-15.793 3.612-4.182 5.756-9.603 5.756-15.368 0-5.771-2.147-11.196-5.766-15.379 3.619-4.183 5.766-9.608 5.766-15.379 0-5.765-2.144-11.187-5.756-15.367 3.146-3.634 5.156-8.213 5.632-13.15l42.11-13.791v48.601c0 4.906 2.779 9.206 7.252 11.221 4.474 2.015 9.536 1.247 13.21-2.004l41.701-36.898v50.794c0 4.143 3.358 7.5 7.5 7.5s7.5-3.357 7.5-7.5v-116.038c0-1.626 1.323-2.948 2.948-2.948h283.903c1.625 0 2.948 1.322 2.948 2.948z"/></g></g></svg>