<?xml version="1.0" encoding="UTF-8"?> <svg xmlns="http://www.w3.org/2000/svg" xmlns:xlink="http://www.w3.org/1999/xlink" width="400" zoomAndPan="magnify" viewBox="0 0 300 74.999997" height="100" preserveAspectRatio="xMidYMid meet" version="1.0"><defs><g></g></defs><g fill="#101013" fill-opacity="1"><g transform="translate(2.77149, 54.624268)"><g><path d="M 0.09375 -2.015625 C 0.9375 -2.046875 1.632812 -2.195312 2.1875 -2.46875 C 2.75 -2.738281 3.113281 -3.09375 3.28125 -3.53125 L 13.921875 -33.640625 L 19.171875 -33.640625 L 29.90625 -4.03125 C 30.113281 -3.5 30.457031 -3.070312 30.9375 -2.75 C 31.425781 -2.425781 32.144531 -2.179688 33.09375 -2.015625 L 32.828125 0 L 19.015625 0 L 19.3125 -2.015625 C 20.863281 -2.253906 21.875 -2.675781 22.34375 -3.28125 L 19.96875 -10.484375 L 9.578125 -10.484375 L 7.15625 -3.53125 C 8.101562 -2.757812 9.535156 -2.253906 11.453125 -2.015625 L 11.203125 0 L -0.203125 0 Z M 18.90625 -13.671875 L 14.984375 -25.78125 L 10.6875 -13.671875 Z M 18.90625 -13.671875 "></path></g></g></g><g fill="#101013" fill-opacity="1"><g transform="translate(35.707183, 54.624268)"><g><path d="M 1.71875 -2.0625 C 2.351562 -2.195312 2.878906 -2.375 3.296875 -2.59375 C 3.722656 -2.8125 4.15625 -3.140625 4.59375 -3.578125 L 4.59375 -30.0625 C 3.945312 -30.664062 2.921875 -31.203125 1.515625 -31.671875 L 1.71875 -33.640625 L 15.9375 -33.640625 C 24.71875 -33.640625 29.109375 -30.515625 29.109375 -24.265625 C 29.109375 -21.003906 27.910156 -18.5 25.515625 -16.75 C 23.128906 -15 19.703125 -14.125 15.234375 -14.125 C 14.492188 -14.125 13.414062 -14.175781 12 -14.28125 L 12 -3.578125 C 12.707031 -2.867188 13.96875 -2.332031 15.78125 -1.96875 L 15.4375 0 L 1.515625 0 Z M 15.28125 -17.296875 C 17.269531 -17.296875 18.765625 -17.875 19.765625 -19.03125 C 20.773438 -20.195312 21.28125 -21.90625 21.28125 -24.15625 C 21.28125 -26.207031 20.75 -27.785156 19.6875 -28.890625 C 18.632812 -30.003906 17.164062 -30.5625 15.28125 -30.5625 C 13.9375 -30.5625 12.84375 -30.492188 12 -30.359375 L 12 -17.296875 Z M 15.28125 -17.296875 "></path></g></g></g><g fill="#101013" fill-opacity="1"><g transform="translate(65.616624, 54.624268)"><g><path d="M 1.71875 -2.0625 C 2.351562 -2.195312 2.878906 -2.375 3.296875 -2.59375 C 3.722656 -2.8125 4.15625 -3.140625 4.59375 -3.578125 L 4.59375 -30.0625 C 3.945312 -30.664062 2.921875 -31.203125 1.515625 -31.671875 L 1.71875 -33.640625 L 15.9375 -33.640625 C 24.71875 -33.640625 29.109375 -30.515625 29.109375 -24.265625 C 29.109375 -21.003906 27.910156 -18.5 25.515625 -16.75 C 23.128906 -15 19.703125 -14.125 15.234375 -14.125 C 14.492188 -14.125 13.414062 -14.175781 12 -14.28125 L 12 -3.578125 C 12.707031 -2.867188 13.96875 -2.332031 15.78125 -1.96875 L 15.4375 0 L 1.515625 0 Z M 15.28125 -17.296875 C 17.269531 -17.296875 18.765625 -17.875 19.765625 -19.03125 C 20.773438 -20.195312 21.28125 -21.90625 21.28125 -24.15625 C 21.28125 -26.207031 20.75 -27.785156 19.6875 -28.890625 C 18.632812 -30.003906 17.164062 -30.5625 15.28125 -30.5625 C 13.9375 -30.5625 12.84375 -30.492188 12 -30.359375 L 12 -17.296875 Z M 15.28125 -17.296875 "></path></g></g></g><g fill="#5e17eb" fill-opacity="1"><g transform="translate(95.173826, 54.624268)"><g><path d="M 15.78125 0.5 C 11.007812 0.5 7.394531 -0.9375 4.9375 -3.8125 C 2.488281 -6.6875 1.265625 -10.878906 1.265625 -16.390625 C 1.265625 -22.171875 2.550781 -26.550781 5.125 -29.53125 C 7.695312 -32.507812 11.488281 -34 16.5 -34 C 18.644531 -34 20.554688 -33.71875 22.234375 -33.15625 C 23.921875 -32.601562 25.234375 -31.820312 26.171875 -30.8125 C 27.117188 -29.800781 27.59375 -28.644531 27.59375 -27.34375 C 27.59375 -26.125 27.203125 -25.09375 26.421875 -24.25 C 25.648438 -23.414062 24.691406 -23 23.546875 -23 C 22.742188 -23 21.976562 -23.21875 21.25 -23.65625 C 20.53125 -24.09375 20.003906 -24.644531 19.671875 -25.3125 C 20.242188 -26.257812 20.53125 -27.117188 20.53125 -27.890625 C 20.53125 -29.003906 20.175781 -29.851562 19.46875 -30.4375 C 18.757812 -31.03125 17.703125 -31.328125 16.296875 -31.328125 C 13.898438 -31.328125 12.097656 -30.140625 10.890625 -27.765625 C 9.679688 -25.390625 9.078125 -21.882812 9.078125 -17.25 C 9.078125 -12.375 9.757812 -8.765625 11.125 -6.421875 C 12.488281 -4.085938 14.597656 -2.921875 17.453125 -2.921875 C 18.523438 -2.921875 19.582031 -3.15625 20.625 -3.625 L 20.625 -12.765625 C 20.226562 -13.335938 19.679688 -13.796875 18.984375 -14.140625 C 18.296875 -14.492188 17.53125 -14.691406 16.6875 -14.734375 L 16.953125 -16.75 L 28.046875 -17.15625 L 28.046875 -3.328125 C 26.359375 -2.117188 24.4375 -1.175781 22.28125 -0.5 C 20.132812 0.164062 17.96875 0.5 15.78125 0.5 Z M 15.78125 0.5 "></path></g></g></g><g fill="#5e17eb" fill-opacity="1"><g transform="translate(124.730205, 54.624268)"><g><path d="M 1.71875 -2.0625 C 2.351562 -2.195312 2.878906 -2.375 3.296875 -2.59375 C 3.722656 -2.8125 4.15625 -3.140625 4.59375 -3.578125 L 4.59375 -30.0625 C 3.945312 -30.664062 2.921875 -31.203125 1.515625 -31.671875 L 1.71875 -33.640625 L 15.9375 -33.640625 C 24.539062 -33.640625 28.84375 -30.679688 28.84375 -24.765625 C 28.84375 -22.609375 28.285156 -20.804688 27.171875 -19.359375 C 26.066406 -17.921875 24.441406 -16.847656 22.296875 -16.140625 C 23.367188 -15.398438 24.242188 -14.289062 24.921875 -12.8125 L 28.703125 -3.828125 C 28.898438 -3.359375 29.257812 -3 29.78125 -2.75 C 30.300781 -2.5 30.96875 -2.269531 31.78125 -2.0625 L 31.421875 0 L 22.25 0 L 17.34375 -13.171875 C 16.875 -14.441406 15.851562 -15.09375 14.28125 -15.125 L 12 -15.234375 L 12 -3.578125 C 12.707031 -2.867188 13.96875 -2.332031 15.78125 -1.96875 L 15.4375 0 L 1.515625 0 Z M 15.28125 -18.3125 C 19.113281 -18.3125 21.03125 -20.425781 21.03125 -24.65625 C 21.03125 -26.539062 20.523438 -27.992188 19.515625 -29.015625 C 18.503906 -30.046875 17.09375 -30.5625 15.28125 -30.5625 C 13.9375 -30.5625 12.84375 -30.492188 12 -30.359375 L 12 -18.3125 Z M 15.28125 -18.3125 "></path></g></g></g><g fill="#5e17eb" fill-opacity="1"><g transform="translate(157.010209, 54.624268)"><g><path d="M 0.09375 -2.015625 C 0.9375 -2.046875 1.632812 -2.195312 2.1875 -2.46875 C 2.75 -2.738281 3.113281 -3.09375 3.28125 -3.53125 L 13.921875 -33.640625 L 19.171875 -33.640625 L 29.90625 -4.03125 C 30.113281 -3.5 30.457031 -3.070312 30.9375 -2.75 C 31.425781 -2.425781 32.144531 -2.179688 33.09375 -2.015625 L 32.828125 0 L 19.015625 0 L 19.3125 -2.015625 C 20.863281 -2.253906 21.875 -2.675781 22.34375 -3.28125 L 19.96875 -10.484375 L 9.578125 -10.484375 L 7.15625 -3.53125 C 8.101562 -2.757812 9.535156 -2.253906 11.453125 -2.015625 L 11.203125 0 L -0.203125 0 Z M 18.90625 -13.671875 L 14.984375 -25.78125 L 10.6875 -13.671875 Z M 18.90625 -13.671875 "></path></g></g></g><g fill="#5e17eb" fill-opacity="1"><g transform="translate(184.902148, 54.624268)"><g><path d="M 7.46875 -2.0625 C 8.914062 -2.269531 10.125 -2.773438 11.09375 -3.578125 L 11.09375 -30.515625 C 9.914062 -30.484375 8.554688 -30.398438 7.015625 -30.265625 L 6 -30.21875 C 5.457031 -29.476562 5.007812 -28.5625 4.65625 -27.46875 C 4.3125 -26.375 4.117188 -25.335938 4.078125 -24.359375 C 3.472656 -24.253906 2.867188 -24.203125 2.265625 -24.203125 C 1.734375 -24.203125 1.179688 -24.253906 0.609375 -24.359375 L 0.609375 -33.84375 C 5.785156 -33.707031 10.507812 -33.640625 14.78125 -33.640625 C 17.332031 -33.640625 20.007812 -33.664062 22.8125 -33.71875 C 25.625 -33.769531 27.6875 -33.8125 29 -33.84375 L 29 -24.359375 C 28.457031 -24.253906 27.90625 -24.203125 27.34375 -24.203125 C 26.726562 -24.203125 26.117188 -24.253906 25.515625 -24.359375 C 25.378906 -25.472656 25.148438 -26.539062 24.828125 -27.5625 C 24.515625 -28.59375 24.140625 -29.457031 23.703125 -30.15625 C 22.023438 -30.394531 20.296875 -30.53125 18.515625 -30.5625 L 18.515625 -3.578125 C 19.210938 -2.910156 20.472656 -2.40625 22.296875 -2.0625 L 21.9375 0 L 7.265625 0 Z M 7.46875 -2.0625 "></path></g></g></g><g fill="#5e17eb" fill-opacity="1"><g transform="translate(214.508961, 54.624268)"><g><path d="M 18.15625 0.359375 C 9.207031 0.359375 4.734375 -3.253906 4.734375 -10.484375 L 4.734375 -30.0625 C 4.429688 -30.363281 3.910156 -30.65625 3.171875 -30.9375 C 2.429688 -31.226562 1.675781 -31.441406 0.90625 -31.578125 L 1.15625 -33.640625 L 15.9375 -33.640625 L 15.640625 -31.578125 C 14.796875 -31.410156 14.117188 -31.21875 13.609375 -31 C 13.109375 -30.78125 12.625 -30.46875 12.15625 -30.0625 L 12.15625 -10.484375 C 12.15625 -8.003906 12.722656 -6.140625 13.859375 -4.890625 C 15.003906 -3.648438 16.789062 -3.03125 19.21875 -3.03125 C 23.550781 -3.03125 25.71875 -5.769531 25.71875 -11.25 L 25.71875 -30.15625 C 25.28125 -30.5 24.773438 -30.757812 24.203125 -30.9375 C 23.640625 -31.125 22.867188 -31.335938 21.890625 -31.578125 L 22.140625 -33.640625 L 34.140625 -33.640625 L 33.84375 -31.671875 C 32.394531 -31.234375 31.285156 -30.695312 30.515625 -30.0625 L 30.515625 -11.34375 C 30.515625 -7.414062 29.503906 -4.484375 27.484375 -2.546875 C 25.472656 -0.609375 22.363281 0.359375 18.15625 0.359375 Z M 18.15625 0.359375 "></path></g></g></g><g fill="#5e17eb" fill-opacity="1"><g transform="translate(249.563024, 54.624268)"><g><path d="M 1.71875 -2.0625 C 3.226562 -2.300781 4.4375 -2.804688 5.34375 -3.578125 L 5.34375 -30.0625 C 5.007812 -30.394531 4.472656 -30.703125 3.734375 -30.984375 C 2.992188 -31.273438 2.253906 -31.472656 1.515625 -31.578125 L 1.765625 -33.640625 L 16.546875 -33.640625 L 16.234375 -31.578125 C 15.429688 -31.410156 14.773438 -31.222656 14.265625 -31.015625 C 13.765625 -30.816406 13.265625 -30.5 12.765625 -30.0625 L 12.765625 -3.578125 C 13.429688 -2.941406 14.691406 -2.4375 16.546875 -2.0625 L 16.1875 0 L 1.515625 0 Z M 1.71875 -2.0625 "></path></g></g></g><g fill="#5e17eb" fill-opacity="1"><g transform="translate(267.619647, 54.624268)"><g><path d="M 7.46875 -2.0625 C 8.914062 -2.269531 10.125 -2.773438 11.09375 -3.578125 L 11.09375 -30.515625 C 9.914062 -30.484375 8.554688 -30.398438 7.015625 -30.265625 L 6 -30.21875 C 5.457031 -29.476562 5.007812 -28.5625 4.65625 -27.46875 C 4.3125 -26.375 4.117188 -25.335938 4.078125 -24.359375 C 3.472656 -24.253906 2.867188 -24.203125 2.265625 -24.203125 C 1.734375 -24.203125 1.179688 -24.253906 0.609375 -24.359375 L 0.609375 -33.84375 C 5.785156 -33.707031 10.507812 -33.640625 14.78125 -33.640625 C 17.332031 -33.640625 20.007812 -33.664062 22.8125 -33.71875 C 25.625 -33.769531 27.6875 -33.8125 29 -33.84375 L 29 -24.359375 C 28.457031 -24.253906 27.90625 -24.203125 27.34375 -24.203125 C 26.726562 -24.203125 26.117188 -24.253906 25.515625 -24.359375 C 25.378906 -25.472656 25.148438 -26.539062 24.828125 -27.5625 C 24.515625 -28.59375 24.140625 -29.457031 23.703125 -30.15625 C 22.023438 -30.394531 20.296875 -30.53125 18.515625 -30.5625 L 18.515625 -3.578125 C 19.210938 -2.910156 20.472656 -2.40625 22.296875 -2.0625 L 21.9375 0 L 7.265625 0 Z M 7.46875 -2.0625 "></path></g></g></g></svg> 