<svg xmlns="http://www.w3.org/2000/svg" xmlns:xlink="http://www.w3.org/1999/xlink" width="400" viewBox="0 0 300 74.999997" height="100" preserveAspectRatio="xMidYMid meet"><defs><g></g></defs><g fill="#ffffff" fill-opacity="1"><g transform="translate(17.315739, 46.750388)"><g><path d="M 33.453125 -27.03125 C 33.734375 -26.71875 33.953125 -26.34375 34.109375 -25.90625 C 34.265625 -25.46875 34.34375 -25.03125 34.34375 -24.59375 C 33.46875 -24.59375 32.816406 -24.4375 32.390625 -24.125 C 31.960938 -23.8125 31.75 -23.304688 31.75 -22.609375 L 31.75 -4.40625 C 31.75 -3.6875 31.945312 -3.1875 32.34375 -2.90625 C 32.75 -2.625 33.414062 -2.484375 34.34375 -2.484375 C 34.34375 -2.015625 34.265625 -1.5625 34.109375 -1.125 C 33.953125 -0.6875 33.734375 -0.3125 33.453125 0 L 23.84375 0 C 23.59375 -0.3125 23.390625 -0.6875 23.234375 -1.125 C 23.078125 -1.5625 23 -2.015625 23 -2.484375 C 23.90625 -2.484375 24.578125 -2.628906 25.015625 -2.921875 C 25.453125 -3.222656 25.671875 -3.71875 25.671875 -4.40625 L 25.671875 -20.4375 L 19.09375 -3.828125 C 18.75 -3.035156 18.28125 -2.488281 17.6875 -2.1875 C 17.09375 -1.894531 16.320312 -1.75 15.375 -1.75 L 7.703125 -20.4375 L 7.703125 -4.40625 C 7.703125 -3.71875 7.953125 -3.222656 8.453125 -2.921875 C 8.960938 -2.628906 9.734375 -2.484375 10.765625 -2.484375 C 10.765625 -2.015625 10.6875 -1.5625 10.53125 -1.125 C 10.375 -0.6875 10.164062 -0.3125 9.90625 0 L 1.859375 0 C 1.597656 -0.3125 1.390625 -0.6875 1.234375 -1.125 C 1.078125 -1.5625 1 -2.015625 1 -2.484375 C 1.957031 -2.484375 2.65625 -2.628906 3.09375 -2.921875 C 3.53125 -3.222656 3.75 -3.71875 3.75 -4.40625 L 3.75 -22.609375 C 3.75 -23.304688 3.515625 -23.8125 3.046875 -24.125 C 2.585938 -24.4375 1.90625 -24.59375 1 -24.59375 C 1 -25.03125 1.078125 -25.46875 1.234375 -25.90625 C 1.390625 -26.34375 1.609375 -26.71875 1.890625 -27.03125 L 7.96875 -27.03125 C 9.1875 -27.03125 10.15625 -26.851562 10.875 -26.5 C 11.601562 -26.15625 12.1875 -25.46875 12.625 -24.4375 L 16.71875 -14.328125 L 18.28125 -9.53125 L 19.75 -14.328125 L 24.625 -27.03125 Z M 33.453125 -27.03125 "></path></g></g></g><g fill="#ffffff" fill-opacity="1"><g transform="translate(52.671633, 46.750388)"><g><path d="M 23.1875 -8.171875 C 23.1875 -7.316406 22.976562 -5.796875 22.5625 -3.609375 C 22.15625 -1.429688 21.785156 -0.0195312 21.453125 0.625 C 21.035156 0.519531 20.492188 0.3125 19.828125 0 L 1.890625 0 C 1.296875 -0.769531 1 -1.582031 1 -2.4375 C 1.882812 -2.4375 2.53125 -2.59375 2.9375 -2.90625 C 3.351562 -3.21875 3.5625 -3.734375 3.5625 -4.453125 L 3.5625 -22.609375 C 3.5625 -23.304688 3.359375 -23.8125 2.953125 -24.125 C 2.554688 -24.4375 1.921875 -24.59375 1.046875 -24.59375 C 1.046875 -25.4375 1.34375 -26.25 1.9375 -27.03125 L 16.953125 -27.03125 C 17.390625 -27.226562 17.898438 -27.382812 18.484375 -27.5 C 19.066406 -27.625 19.601562 -27.6875 20.09375 -27.6875 C 20.476562 -26.9375 20.894531 -25.898438 21.34375 -24.578125 C 21.800781 -23.265625 22.03125 -22.3125 22.03125 -21.71875 C 21.71875 -21.4375 21.1875 -21.140625 20.4375 -20.828125 C 19.695312 -20.515625 19.050781 -20.3125 18.5 -20.21875 C 18.164062 -21.164062 17.640625 -21.988281 16.921875 -22.6875 C 16.203125 -23.382812 15.363281 -23.734375 14.40625 -23.734375 L 10.03125 -23.734375 L 10.03125 -15.5625 L 12.8125 -15.5625 C 14.488281 -15.5625 15.328125 -16.503906 15.328125 -18.390625 C 16.492188 -18.390625 17.539062 -18.117188 18.46875 -17.578125 L 18.46875 -10.375 C 18.050781 -10.113281 17.570312 -9.910156 17.03125 -9.765625 C 16.488281 -9.628906 15.9375 -9.5625 15.375 -9.5625 C 15.375 -10.539062 15.140625 -11.273438 14.671875 -11.765625 C 14.210938 -12.253906 13.609375 -12.5 12.859375 -12.5 L 10.03125 -12.5 L 10.03125 -3.40625 L 14.71875 -3.40625 C 15.800781 -3.40625 16.738281 -3.863281 17.53125 -4.78125 C 18.332031 -5.695312 18.835938 -6.828125 19.046875 -8.171875 Z M 23.1875 -8.171875 "></path></g></g></g><g fill="#ffffff" fill-opacity="1"><g transform="translate(76.487485, 46.750388)"><g><path d="M 8.125 -4.40625 C 8.125 -3.09375 9.066406 -2.4375 10.953125 -2.4375 C 10.953125 -1.53125 10.65625 -0.71875 10.0625 0 L 2.015625 0 C 1.441406 -0.695312 1.15625 -1.507812 1.15625 -2.4375 C 2.0625 -2.4375 2.734375 -2.59375 3.171875 -2.90625 C 3.609375 -3.21875 3.828125 -3.71875 3.828125 -4.40625 L 3.828125 -22.609375 C 3.828125 -23.929688 2.882812 -24.59375 1 -24.59375 C 1 -25.03125 1.078125 -25.46875 1.234375 -25.90625 C 1.390625 -26.34375 1.597656 -26.71875 1.859375 -27.03125 L 7.234375 -27.03125 C 7.984375 -27.03125 8.734375 -26.738281 9.484375 -26.15625 C 10.234375 -25.570312 10.941406 -24.765625 11.609375 -23.734375 L 20.40625 -9.828125 L 20.40625 -22.609375 C 20.40625 -23.304688 20.171875 -23.8125 19.703125 -24.125 C 19.242188 -24.4375 18.5625 -24.59375 17.65625 -24.59375 C 17.65625 -25.050781 17.734375 -25.492188 17.890625 -25.921875 C 18.046875 -26.347656 18.265625 -26.71875 18.546875 -27.03125 L 26.796875 -27.03125 C 27.078125 -26.71875 27.296875 -26.34375 27.453125 -25.90625 C 27.609375 -25.46875 27.6875 -25.03125 27.6875 -24.59375 C 26.8125 -24.59375 26.144531 -24.4375 25.6875 -24.125 C 25.238281 -23.8125 25.015625 -23.304688 25.015625 -22.609375 L 25.015625 0.234375 L 23.46875 0.234375 C 22.195312 0.234375 21.265625 0.0703125 20.671875 -0.25 C 20.078125 -0.570312 19.507812 -1.132812 18.96875 -1.9375 L 8.125 -18.390625 Z M 8.125 -4.40625 "></path></g></g></g><g fill="#ffffff" fill-opacity="1"><g transform="translate(104.524366, 46.750388)"><g><path d="M 23.234375 -10.5625 C 23.234375 -6.976562 22.382812 -4.238281 20.6875 -2.34375 C 19 -0.445312 16.492188 0.5 13.171875 0.5 C 9.804688 0.5 7.171875 -0.414062 5.265625 -2.25 C 3.359375 -4.082031 2.40625 -6.726562 2.40625 -10.1875 L 2.40625 -22.65625 C 2.40625 -23.351562 2.222656 -23.847656 1.859375 -24.140625 C 1.492188 -24.441406 0.875 -24.59375 0 -24.59375 C 0 -25.570312 0.296875 -26.382812 0.890625 -27.03125 L 10.5625 -27.03125 C 11.15625 -26.382812 11.453125 -25.570312 11.453125 -24.59375 C 10.578125 -24.59375 9.957031 -24.441406 9.59375 -24.140625 C 9.238281 -23.847656 9.0625 -23.351562 9.0625 -22.65625 L 9.0625 -9.375 C 9.0625 -7.507812 9.453125 -6.015625 10.234375 -4.890625 C 11.023438 -3.773438 12.234375 -3.21875 13.859375 -3.21875 C 15.484375 -3.21875 16.660156 -3.722656 17.390625 -4.734375 C 18.128906 -5.753906 18.5 -7.09375 18.5 -8.75 L 18.5 -22.65625 C 18.5 -23.351562 18.285156 -23.847656 17.859375 -24.140625 C 17.441406 -24.441406 16.742188 -24.59375 15.765625 -24.59375 C 15.765625 -25.625 16.046875 -26.4375 16.609375 -27.03125 L 25.125 -27.03125 C 25.695312 -26.382812 25.984375 -25.570312 25.984375 -24.59375 C 25.003906 -24.59375 24.300781 -24.441406 23.875 -24.140625 C 23.445312 -23.847656 23.234375 -23.351562 23.234375 -22.65625 Z M 23.234375 -10.5625 "></path></g></g></g><g fill="#f77314" fill-opacity="1"><g transform="translate(130.515494, 46.750388)"><g><path d="M 17.109375 -18.390625 C 16.878906 -20.117188 16.410156 -21.5 15.703125 -22.53125 C 14.992188 -23.5625 14.082031 -24.078125 12.96875 -24.078125 C 11.394531 -24.078125 10.144531 -23.332031 9.21875 -21.84375 C 8.289062 -20.363281 7.828125 -18.078125 7.828125 -14.984375 C 7.828125 -11.242188 8.546875 -8.507812 9.984375 -6.78125 C 11.429688 -5.050781 13.304688 -4.1875 15.609375 -4.1875 C 16.710938 -4.1875 17.691406 -4.390625 18.546875 -4.796875 C 19.398438 -5.210938 20.003906 -5.703125 20.359375 -6.265625 C 20.671875 -6.035156 20.929688 -5.6875 21.140625 -5.21875 C 21.347656 -4.757812 21.453125 -4.335938 21.453125 -3.953125 C 21.453125 -3.304688 21.117188 -2.632812 20.453125 -1.9375 C 19.796875 -1.238281 18.847656 -0.648438 17.609375 -0.171875 C 16.378906 0.304688 14.945312 0.546875 13.3125 0.546875 C 11.039062 0.546875 8.96875 0.015625 7.09375 -1.046875 C 5.226562 -2.109375 3.738281 -3.707031 2.625 -5.84375 C 1.519531 -7.988281 0.96875 -10.582031 0.96875 -13.625 C 0.96875 -16.59375 1.46875 -19.113281 2.46875 -21.1875 C 3.476562 -23.269531 4.894531 -24.832031 6.71875 -25.875 C 8.539062 -26.925781 10.664062 -27.453125 13.09375 -27.453125 C 13.65625 -27.453125 14.296875 -27.375 15.015625 -27.21875 C 15.742188 -27.0625 16.378906 -26.851562 16.921875 -26.59375 C 17.304688 -26.78125 17.875 -26.960938 18.625 -27.140625 C 19.375 -27.316406 19.953125 -27.421875 20.359375 -27.453125 C 21.109375 -25.617188 21.484375 -22.597656 21.484375 -18.390625 Z M 17.109375 -18.390625 "></path></g></g></g><g fill="#f77314" fill-opacity="1"><g transform="translate(152.588732, 46.750388)"><g><path d="M 12.9375 0.5 C 10.457031 0.5 8.316406 -0.0703125 6.515625 -1.21875 C 4.722656 -2.363281 3.347656 -3.992188 2.390625 -6.109375 C 1.441406 -8.234375 0.96875 -10.6875 0.96875 -13.46875 C 0.96875 -16.382812 1.457031 -18.894531 2.4375 -21 C 3.414062 -23.101562 4.800781 -24.707031 6.59375 -25.8125 C 8.394531 -26.925781 10.492188 -27.484375 12.890625 -27.484375 C 15.367188 -27.484375 17.507812 -26.898438 19.3125 -25.734375 C 21.125 -24.578125 22.515625 -22.945312 23.484375 -20.84375 C 24.453125 -18.738281 24.9375 -16.28125 24.9375 -13.46875 C 24.9375 -10.582031 24.4375 -8.085938 23.4375 -5.984375 C 22.445312 -3.878906 21.046875 -2.269531 19.234375 -1.15625 C 17.429688 -0.0507812 15.332031 0.5 12.9375 0.5 Z M 12.9375 -2.328125 C 14.351562 -2.328125 15.503906 -3.140625 16.390625 -4.765625 C 17.285156 -6.390625 17.734375 -9.34375 17.734375 -13.625 C 17.734375 -17.707031 17.316406 -20.5625 16.484375 -22.1875 C 15.660156 -23.8125 14.503906 -24.625 13.015625 -24.625 C 11.585938 -24.625 10.425781 -23.8125 9.53125 -22.1875 C 8.644531 -20.5625 8.203125 -17.617188 8.203125 -13.359375 C 8.203125 -9.273438 8.617188 -6.414062 9.453125 -4.78125 C 10.296875 -3.144531 11.457031 -2.328125 12.9375 -2.328125 Z M 12.9375 -2.328125 "></path></g></g></g><g fill="#f77314" fill-opacity="1"><g transform="translate(178.495737, 46.750388)"><g><path d="M 17.109375 -18.390625 C 16.878906 -20.117188 16.410156 -21.5 15.703125 -22.53125 C 14.992188 -23.5625 14.082031 -24.078125 12.96875 -24.078125 C 11.394531 -24.078125 10.144531 -23.332031 9.21875 -21.84375 C 8.289062 -20.363281 7.828125 -18.078125 7.828125 -14.984375 C 7.828125 -11.242188 8.546875 -8.507812 9.984375 -6.78125 C 11.429688 -5.050781 13.304688 -4.1875 15.609375 -4.1875 C 16.710938 -4.1875 17.691406 -4.390625 18.546875 -4.796875 C 19.398438 -5.210938 20.003906 -5.703125 20.359375 -6.265625 C 20.671875 -6.035156 20.929688 -5.6875 21.140625 -5.21875 C 21.347656 -4.757812 21.453125 -4.335938 21.453125 -3.953125 C 21.453125 -3.304688 21.117188 -2.632812 20.453125 -1.9375 C 19.796875 -1.238281 18.847656 -0.648438 17.609375 -0.171875 C 16.378906 0.304688 14.945312 0.546875 13.3125 0.546875 C 11.039062 0.546875 8.96875 0.015625 7.09375 -1.046875 C 5.226562 -2.109375 3.738281 -3.707031 2.625 -5.84375 C 1.519531 -7.988281 0.96875 -10.582031 0.96875 -13.625 C 0.96875 -16.59375 1.46875 -19.113281 2.46875 -21.1875 C 3.476562 -23.269531 4.894531 -24.832031 6.71875 -25.875 C 8.539062 -26.925781 10.664062 -27.453125 13.09375 -27.453125 C 13.65625 -27.453125 14.296875 -27.375 15.015625 -27.21875 C 15.742188 -27.0625 16.378906 -26.851562 16.921875 -26.59375 C 17.304688 -26.78125 17.875 -26.960938 18.625 -27.140625 C 19.375 -27.316406 19.953125 -27.421875 20.359375 -27.453125 C 21.109375 -25.617188 21.484375 -22.597656 21.484375 -18.390625 Z M 17.109375 -18.390625 "></path></g></g></g><g fill="#f77314" fill-opacity="1"><g transform="translate(200.568974, 46.750388)"><g><path d="M 24.859375 -4.40625 C 24.859375 -3.6875 25.03125 -3.1875 25.375 -2.90625 C 25.726562 -2.625 26.316406 -2.484375 27.140625 -2.484375 C 27.140625 -2.015625 27.0625 -1.5625 26.90625 -1.125 C 26.75 -0.6875 26.546875 -0.3125 26.296875 0 L 16.875 0 C 16.625 -0.3125 16.421875 -0.6875 16.265625 -1.125 C 16.109375 -1.5625 16.03125 -2.015625 16.03125 -2.484375 C 16.882812 -2.484375 17.484375 -2.625 17.828125 -2.90625 C 18.179688 -3.1875 18.359375 -3.6875 18.359375 -4.40625 L 18.359375 -12.125 L 9.828125 -12.125 L 9.828125 -4.40625 C 9.828125 -3.6875 10 -3.1875 10.34375 -2.90625 C 10.695312 -2.625 11.300781 -2.484375 12.15625 -2.484375 C 12.15625 -2.015625 12.078125 -1.5625 11.921875 -1.125 C 11.765625 -0.6875 11.5625 -0.3125 11.3125 0 L 1.859375 0 C 1.597656 -0.3125 1.390625 -0.6875 1.234375 -1.125 C 1.078125 -1.5625 1 -2.015625 1 -2.484375 C 1.851562 -2.484375 2.453125 -2.625 2.796875 -2.90625 C 3.148438 -3.1875 3.328125 -3.6875 3.328125 -4.40625 L 3.328125 -22.609375 C 3.328125 -23.335938 3.148438 -23.847656 2.796875 -24.140625 C 2.453125 -24.441406 1.851562 -24.59375 1 -24.59375 C 1 -25.03125 1.078125 -25.46875 1.234375 -25.90625 C 1.390625 -26.34375 1.597656 -26.71875 1.859375 -27.03125 L 11.3125 -27.03125 C 11.5625 -26.71875 11.765625 -26.34375 11.921875 -25.90625 C 12.078125 -25.46875 12.15625 -25.03125 12.15625 -24.59375 C 11.300781 -24.59375 10.695312 -24.441406 10.34375 -24.140625 C 10 -23.847656 9.828125 -23.335938 9.828125 -22.609375 L 9.828125 -15.375 L 18.359375 -15.375 L 18.359375 -22.609375 C 18.359375 -23.335938 18.175781 -23.847656 17.8125 -24.140625 C 17.445312 -24.441406 16.851562 -24.59375 16.03125 -24.59375 C 16.03125 -25.03125 16.109375 -25.46875 16.265625 -25.90625 C 16.421875 -26.34375 16.625 -26.71875 16.875 -27.03125 L 26.296875 -27.03125 C 26.546875 -26.71875 26.75 -26.34375 26.90625 -25.90625 C 27.0625 -25.46875 27.140625 -25.03125 27.140625 -24.59375 C 26.316406 -24.59375 25.726562 -24.441406 25.375 -24.140625 C 25.03125 -23.847656 24.859375 -23.335938 24.859375 -22.609375 Z M 24.859375 -4.40625 "></path></g></g></g><g fill="#f77314" fill-opacity="1"><g transform="translate(228.722017, 46.750388)"><g><path d="M 12.9375 0.5 C 10.457031 0.5 8.316406 -0.0703125 6.515625 -1.21875 C 4.722656 -2.363281 3.347656 -3.992188 2.390625 -6.109375 C 1.441406 -8.234375 0.96875 -10.6875 0.96875 -13.46875 C 0.96875 -16.382812 1.457031 -18.894531 2.4375 -21 C 3.414062 -23.101562 4.800781 -24.707031 6.59375 -25.8125 C 8.394531 -26.925781 10.492188 -27.484375 12.890625 -27.484375 C 15.367188 -27.484375 17.507812 -26.898438 19.3125 -25.734375 C 21.125 -24.578125 22.515625 -22.945312 23.484375 -20.84375 C 24.453125 -18.738281 24.9375 -16.28125 24.9375 -13.46875 C 24.9375 -10.582031 24.4375 -8.085938 23.4375 -5.984375 C 22.445312 -3.878906 21.046875 -2.269531 19.234375 -1.15625 C 17.429688 -0.0507812 15.332031 0.5 12.9375 0.5 Z M 12.9375 -2.328125 C 14.351562 -2.328125 15.503906 -3.140625 16.390625 -4.765625 C 17.285156 -6.390625 17.734375 -9.34375 17.734375 -13.625 C 17.734375 -17.707031 17.316406 -20.5625 16.484375 -22.1875 C 15.660156 -23.8125 14.503906 -24.625 13.015625 -24.625 C 11.585938 -24.625 10.425781 -23.8125 9.53125 -22.1875 C 8.644531 -20.5625 8.203125 -17.617188 8.203125 -13.359375 C 8.203125 -9.273438 8.617188 -6.414062 9.453125 -4.78125 C 10.296875 -3.144531 11.457031 -2.328125 12.9375 -2.328125 Z M 12.9375 -2.328125 "></path></g></g></g><g fill="#f77314" fill-opacity="1"><g transform="translate(254.629022, 46.750388)"><g><path d="M 8.125 -4.40625 C 8.125 -3.09375 9.066406 -2.4375 10.953125 -2.4375 C 10.953125 -1.53125 10.65625 -0.71875 10.0625 0 L 2.015625 0 C 1.441406 -0.695312 1.15625 -1.507812 1.15625 -2.4375 C 2.0625 -2.4375 2.734375 -2.59375 3.171875 -2.90625 C 3.609375 -3.21875 3.828125 -3.71875 3.828125 -4.40625 L 3.828125 -22.609375 C 3.828125 -23.929688 2.882812 -24.59375 1 -24.59375 C 1 -25.03125 1.078125 -25.46875 1.234375 -25.90625 C 1.390625 -26.34375 1.597656 -26.71875 1.859375 -27.03125 L 7.234375 -27.03125 C 7.984375 -27.03125 8.734375 -26.738281 9.484375 -26.15625 C 10.234375 -25.570312 10.941406 -24.765625 11.609375 -23.734375 L 20.40625 -9.828125 L 20.40625 -22.609375 C 20.40625 -23.304688 20.171875 -23.8125 19.703125 -24.125 C 19.242188 -24.4375 18.5625 -24.59375 17.65625 -24.59375 C 17.65625 -25.050781 17.734375 -25.492188 17.890625 -25.921875 C 18.046875 -26.347656 18.265625 -26.71875 18.546875 -27.03125 L 26.796875 -27.03125 C 27.078125 -26.71875 27.296875 -26.34375 27.453125 -25.90625 C 27.609375 -25.46875 27.6875 -25.03125 27.6875 -24.59375 C 26.8125 -24.59375 26.144531 -24.4375 25.6875 -24.125 C 25.238281 -23.8125 25.015625 -23.304688 25.015625 -22.609375 L 25.015625 0.234375 L 23.46875 0.234375 C 22.195312 0.234375 21.265625 0.0703125 20.671875 -0.25 C 20.078125 -0.570312 19.507812 -1.132812 18.96875 -1.9375 L 8.125 -18.390625 Z M 8.125 -4.40625 "></path></g></g></g><g fill="#ffffff" fill-opacity="1"><g transform="translate(59.848435, 59.701192)"><g><path d="M 0.875 -8.59375 C 0.757812 -8.9375 0.4375 -9.15625 -0.09375 -9.25 L -0.015625 -9.84375 L 4.03125 -9.84375 L 3.9375 -9.25 C 3.519531 -9.226562 3.21875 -9.117188 3.03125 -8.921875 L 5.03125 -2.734375 L 7.1875 -8.8125 C 6.925781 -9.03125 6.535156 -9.175781 6.015625 -9.25 L 6.09375 -9.84375 L 9.34375 -9.84375 L 9.28125 -9.25 C 9.019531 -9.238281 8.800781 -9.1875 8.625 -9.09375 C 8.457031 -9.007812 8.347656 -8.898438 8.296875 -8.765625 L 5.109375 0 L 3.609375 0 Z M 0.875 -8.59375 "></path></g></g></g><g fill="#ffffff" fill-opacity="1"><g transform="translate(69.165939, 59.701192)"><g><path d="M 4.78125 0.140625 C 3.320312 0.140625 2.222656 -0.289062 1.484375 -1.15625 C 0.742188 -2.019531 0.375 -3.28125 0.375 -4.9375 C 0.375 -6.59375 0.742188 -7.847656 1.484375 -8.703125 C 2.222656 -9.566406 3.320312 -10 4.78125 -10 C 6.238281 -10 7.332031 -9.566406 8.0625 -8.703125 C 8.800781 -7.847656 9.171875 -6.59375 9.171875 -4.9375 C 9.171875 -3.28125 8.800781 -2.019531 8.0625 -1.15625 C 7.332031 -0.289062 6.238281 0.140625 4.78125 0.140625 Z M 4.78125 -0.703125 C 5.46875 -0.703125 5.960938 -1.03125 6.265625 -1.6875 C 6.566406 -2.351562 6.71875 -3.4375 6.71875 -4.9375 C 6.71875 -6.4375 6.566406 -7.507812 6.265625 -8.15625 C 5.960938 -8.8125 5.46875 -9.140625 4.78125 -9.140625 C 4.082031 -9.140625 3.578125 -8.8125 3.265625 -8.15625 C 2.953125 -7.507812 2.796875 -6.4375 2.796875 -4.9375 C 2.796875 -3.4375 2.953125 -2.351562 3.265625 -1.6875 C 3.578125 -1.03125 4.082031 -0.703125 4.78125 -0.703125 Z M 4.78125 -0.703125 "></path></g></g></g><g fill="#ffffff" fill-opacity="1"><g transform="translate(78.704585, 59.701192)"><g><path d="M 3.375 0.109375 C 2.820312 0.109375 2.269531 0.046875 1.71875 -0.078125 C 1.175781 -0.210938 0.671875 -0.40625 0.203125 -0.65625 L 0.203125 -2.890625 L 1.546875 -3.140625 C 1.578125 -2.722656 1.640625 -2.300781 1.734375 -1.875 C 1.828125 -1.445312 1.921875 -1.140625 2.015625 -0.953125 C 2.460938 -0.785156 2.875 -0.703125 3.25 -0.703125 C 3.664062 -0.703125 4.003906 -0.832031 4.265625 -1.09375 C 4.523438 -1.351562 4.65625 -1.71875 4.65625 -2.1875 C 4.65625 -2.632812 4.507812 -3.015625 4.21875 -3.328125 C 3.925781 -3.648438 3.457031 -3.945312 2.8125 -4.21875 C 2.15625 -4.5 1.640625 -4.773438 1.265625 -5.046875 C 0.890625 -5.316406 0.617188 -5.625 0.453125 -5.96875 C 0.296875 -6.320312 0.21875 -6.75 0.21875 -7.25 C 0.21875 -7.769531 0.359375 -8.234375 0.640625 -8.640625 C 0.929688 -9.046875 1.328125 -9.363281 1.828125 -9.59375 C 2.328125 -9.832031 2.894531 -9.953125 3.53125 -9.953125 C 4.070312 -9.953125 4.578125 -9.863281 5.046875 -9.6875 C 5.515625 -9.519531 5.882812 -9.289062 6.15625 -9 C 6.425781 -8.707031 6.5625 -8.382812 6.5625 -8.03125 C 6.5625 -7.695312 6.472656 -7.429688 6.296875 -7.234375 C 6.117188 -7.046875 5.890625 -6.953125 5.609375 -6.953125 C 5.242188 -6.953125 4.867188 -7.097656 4.484375 -7.390625 C 4.734375 -7.660156 4.859375 -7.957031 4.859375 -8.28125 C 4.859375 -8.550781 4.738281 -8.765625 4.5 -8.921875 C 4.269531 -9.078125 3.957031 -9.15625 3.5625 -9.15625 C 3.144531 -9.15625 2.8125 -9.046875 2.5625 -8.828125 C 2.3125 -8.617188 2.1875 -8.335938 2.1875 -7.984375 C 2.1875 -7.679688 2.242188 -7.421875 2.359375 -7.203125 C 2.472656 -6.992188 2.675781 -6.789062 2.96875 -6.59375 C 3.257812 -6.394531 3.671875 -6.175781 4.203125 -5.9375 C 5.128906 -5.539062 5.785156 -5.109375 6.171875 -4.640625 C 6.554688 -4.179688 6.75 -3.585938 6.75 -2.859375 C 6.75 -1.941406 6.441406 -1.21875 5.828125 -0.6875 C 5.210938 -0.15625 4.394531 0.109375 3.375 0.109375 Z M 3.375 0.109375 "></path></g></g></g><g fill="#ffffff" fill-opacity="1"><g transform="translate(85.677965, 59.701192)"><g></g></g></g><g fill="#f77314" fill-opacity="1"><g transform="translate(88.937582, 59.701192)"><g><path d="M 0.5 -0.609375 C 0.6875 -0.640625 0.84375 -0.6875 0.96875 -0.75 C 1.09375 -0.820312 1.21875 -0.921875 1.34375 -1.046875 L 1.34375 -8.796875 C 1.15625 -8.972656 0.851562 -9.128906 0.4375 -9.265625 L 0.5 -9.84375 L 4.65625 -9.84375 C 7.175781 -9.84375 8.4375 -8.976562 8.4375 -7.25 C 8.4375 -6.613281 8.273438 -6.082031 7.953125 -5.65625 C 7.628906 -5.238281 7.148438 -4.925781 6.515625 -4.71875 C 6.828125 -4.5 7.082031 -4.175781 7.28125 -3.75 L 8.390625 -1.125 C 8.453125 -0.988281 8.554688 -0.878906 8.703125 -0.796875 C 8.859375 -0.722656 9.054688 -0.660156 9.296875 -0.609375 L 9.1875 0 L 6.5 0 L 5.078125 -3.84375 C 4.941406 -4.21875 4.640625 -4.410156 4.171875 -4.421875 L 3.515625 -4.453125 L 3.515625 -1.046875 C 3.710938 -0.835938 4.078125 -0.679688 4.609375 -0.578125 L 4.515625 0 L 0.4375 0 Z M 4.46875 -5.359375 C 5.59375 -5.359375 6.15625 -5.976562 6.15625 -7.21875 C 6.15625 -7.757812 6.003906 -8.179688 5.703125 -8.484375 C 5.410156 -8.785156 5 -8.9375 4.46875 -8.9375 C 4.070312 -8.9375 3.753906 -8.914062 3.515625 -8.875 L 3.515625 -5.359375 Z M 4.46875 -5.359375 "></path></g></g></g><g fill="#f77314" fill-opacity="1"><g transform="translate(98.373025, 59.701192)"><g><path d="M 0.5 -0.609375 C 0.65625 -0.628906 0.816406 -0.675781 0.984375 -0.75 C 1.148438 -0.820312 1.269531 -0.894531 1.34375 -0.96875 L 1.34375 -8.859375 C 1.101562 -9.066406 0.800781 -9.210938 0.4375 -9.296875 L 0.484375 -9.84375 L 7.65625 -9.84375 L 7.71875 -7.40625 C 7.488281 -7.332031 7.28125 -7.296875 7.09375 -7.296875 C 7 -7.296875 6.84375 -7.316406 6.625 -7.359375 C 6.539062 -7.734375 6.445312 -8.039062 6.34375 -8.28125 C 6.25 -8.519531 6.128906 -8.738281 5.984375 -8.9375 L 3.515625 -8.9375 L 3.515625 -5.4375 L 4.875 -5.546875 C 5.050781 -5.566406 5.21875 -5.664062 5.375 -5.84375 C 5.53125 -6.019531 5.640625 -6.25 5.703125 -6.53125 L 6.46875 -6.53125 L 6.46875 -3.484375 L 5.703125 -3.484375 C 5.566406 -3.878906 5.4375 -4.15625 5.3125 -4.3125 C 5.1875 -4.46875 5.039062 -4.554688 4.875 -4.578125 L 3.515625 -4.6875 L 3.515625 -0.921875 L 6.09375 -0.921875 C 6.40625 -1.390625 6.632812 -2.007812 6.78125 -2.78125 C 6.988281 -2.8125 7.191406 -2.828125 7.390625 -2.828125 C 7.554688 -2.828125 7.71875 -2.8125 7.875 -2.78125 L 7.734375 0 L 0.4375 0 Z M 0.5 -0.609375 "></path></g></g></g><g fill="#f77314" fill-opacity="1"><g transform="translate(106.614294, 59.701192)"><g><path d="M 4.609375 0.140625 C 3.222656 0.140625 2.171875 -0.273438 1.453125 -1.109375 C 0.734375 -1.941406 0.375 -3.171875 0.375 -4.796875 C 0.375 -6.492188 0.726562 -7.773438 1.4375 -8.640625 C 2.144531 -9.503906 3.203125 -9.9375 4.609375 -9.9375 C 5.191406 -9.9375 5.710938 -9.851562 6.171875 -9.6875 C 6.628906 -9.53125 6.984375 -9.300781 7.234375 -9 C 7.492188 -8.707031 7.625 -8.375 7.625 -8 C 7.625 -7.644531 7.507812 -7.34375 7.28125 -7.09375 C 7.0625 -6.84375 6.785156 -6.71875 6.453125 -6.71875 C 6.210938 -6.71875 5.984375 -6.78125 5.765625 -6.90625 C 5.554688 -7.039062 5.40625 -7.207031 5.3125 -7.40625 C 5.46875 -7.664062 5.546875 -7.925781 5.546875 -8.1875 C 5.546875 -8.476562 5.453125 -8.710938 5.265625 -8.890625 C 5.085938 -9.066406 4.847656 -9.15625 4.546875 -9.15625 C 3.378906 -9.15625 2.796875 -7.785156 2.796875 -5.046875 C 2.796875 -3.660156 2.976562 -2.613281 3.34375 -1.90625 C 3.707031 -1.207031 4.296875 -0.859375 5.109375 -0.859375 C 5.492188 -0.859375 5.878906 -0.953125 6.265625 -1.140625 C 6.648438 -1.328125 7.007812 -1.601562 7.34375 -1.96875 L 7.828125 -1.484375 C 7.367188 -0.960938 6.851562 -0.5625 6.28125 -0.28125 C 5.71875 0 5.160156 0.140625 4.609375 0.140625 Z M 4.609375 0.140625 "></path></g></g></g><g fill="#f77314" fill-opacity="1"><g transform="translate(114.737623, 59.701192)"><g><path d="M 0.5 -0.609375 C 0.65625 -0.628906 0.816406 -0.675781 0.984375 -0.75 C 1.148438 -0.820312 1.269531 -0.894531 1.34375 -0.96875 L 1.34375 -8.859375 C 1.101562 -9.066406 0.800781 -9.210938 0.4375 -9.296875 L 0.484375 -9.84375 L 7.65625 -9.84375 L 7.71875 -7.40625 C 7.488281 -7.332031 7.28125 -7.296875 7.09375 -7.296875 C 7 -7.296875 6.84375 -7.316406 6.625 -7.359375 C 6.539062 -7.734375 6.445312 -8.039062 6.34375 -8.28125 C 6.25 -8.519531 6.128906 -8.738281 5.984375 -8.9375 L 3.515625 -8.9375 L 3.515625 -5.4375 L 4.875 -5.546875 C 5.050781 -5.566406 5.21875 -5.664062 5.375 -5.84375 C 5.53125 -6.019531 5.640625 -6.25 5.703125 -6.53125 L 6.46875 -6.53125 L 6.46875 -3.484375 L 5.703125 -3.484375 C 5.566406 -3.878906 5.4375 -4.15625 5.3125 -4.3125 C 5.1875 -4.46875 5.039062 -4.554688 4.875 -4.578125 L 3.515625 -4.6875 L 3.515625 -0.921875 L 6.09375 -0.921875 C 6.40625 -1.390625 6.632812 -2.007812 6.78125 -2.78125 C 6.988281 -2.8125 7.191406 -2.828125 7.390625 -2.828125 C 7.554688 -2.828125 7.71875 -2.8125 7.875 -2.78125 L 7.734375 0 L 0.4375 0 Z M 0.5 -0.609375 "></path></g></g></g><g fill="#f77314" fill-opacity="1"><g transform="translate(122.978892, 59.701192)"><g><path d="M 2.1875 -0.609375 C 2.601562 -0.660156 2.957031 -0.804688 3.25 -1.046875 L 3.25 -8.921875 C 2.90625 -8.910156 2.503906 -8.882812 2.046875 -8.84375 L 1.75 -8.828125 C 1.59375 -8.617188 1.460938 -8.351562 1.359375 -8.03125 C 1.253906 -7.707031 1.195312 -7.40625 1.1875 -7.125 C 1.007812 -7.09375 0.832031 -7.078125 0.65625 -7.078125 C 0.5 -7.078125 0.335938 -7.09375 0.171875 -7.125 L 0.171875 -9.890625 C 1.691406 -9.859375 3.078125 -9.84375 4.328125 -9.84375 C 5.066406 -9.84375 5.847656 -9.847656 6.671875 -9.859375 C 7.492188 -9.867188 8.097656 -9.878906 8.484375 -9.890625 L 8.484375 -7.125 C 8.328125 -7.09375 8.164062 -7.078125 8 -7.078125 C 7.820312 -7.078125 7.644531 -7.09375 7.46875 -7.125 C 7.425781 -7.445312 7.359375 -7.757812 7.265625 -8.0625 C 7.171875 -8.363281 7.0625 -8.617188 6.9375 -8.828125 C 6.4375 -8.890625 5.925781 -8.925781 5.40625 -8.9375 L 5.40625 -1.046875 C 5.613281 -0.847656 5.984375 -0.703125 6.515625 -0.609375 L 6.421875 0 L 2.125 0 Z M 2.1875 -0.609375 "></path></g></g></g><g fill="#f77314" fill-opacity="1"><g transform="translate(131.632955, 59.701192)"><g><path d="M 2.1875 -0.609375 C 2.601562 -0.660156 2.957031 -0.804688 3.25 -1.046875 L 3.25 -8.921875 C 2.90625 -8.910156 2.503906 -8.882812 2.046875 -8.84375 L 1.75 -8.828125 C 1.59375 -8.617188 1.460938 -8.351562 1.359375 -8.03125 C 1.253906 -7.707031 1.195312 -7.40625 1.1875 -7.125 C 1.007812 -7.09375 0.832031 -7.078125 0.65625 -7.078125 C 0.5 -7.078125 0.335938 -7.09375 0.171875 -7.125 L 0.171875 -9.890625 C 1.691406 -9.859375 3.078125 -9.84375 4.328125 -9.84375 C 5.066406 -9.84375 5.847656 -9.847656 6.671875 -9.859375 C 7.492188 -9.867188 8.097656 -9.878906 8.484375 -9.890625 L 8.484375 -7.125 C 8.328125 -7.09375 8.164062 -7.078125 8 -7.078125 C 7.820312 -7.078125 7.644531 -7.09375 7.46875 -7.125 C 7.425781 -7.445312 7.359375 -7.757812 7.265625 -8.0625 C 7.171875 -8.363281 7.0625 -8.617188 6.9375 -8.828125 C 6.4375 -8.890625 5.925781 -8.925781 5.40625 -8.9375 L 5.40625 -1.046875 C 5.613281 -0.847656 5.984375 -0.703125 6.515625 -0.609375 L 6.421875 0 L 2.125 0 Z M 2.1875 -0.609375 "></path></g></g></g><g fill="#f77314" fill-opacity="1"><g transform="translate(140.287019, 59.701192)"><g><path d="M 0.5 -0.609375 C 0.65625 -0.628906 0.816406 -0.675781 0.984375 -0.75 C 1.148438 -0.820312 1.269531 -0.894531 1.34375 -0.96875 L 1.34375 -8.859375 C 1.101562 -9.066406 0.800781 -9.210938 0.4375 -9.296875 L 0.484375 -9.84375 L 7.65625 -9.84375 L 7.71875 -7.40625 C 7.488281 -7.332031 7.28125 -7.296875 7.09375 -7.296875 C 7 -7.296875 6.84375 -7.316406 6.625 -7.359375 C 6.539062 -7.734375 6.445312 -8.039062 6.34375 -8.28125 C 6.25 -8.519531 6.128906 -8.738281 5.984375 -8.9375 L 3.515625 -8.9375 L 3.515625 -5.4375 L 4.875 -5.546875 C 5.050781 -5.566406 5.21875 -5.664062 5.375 -5.84375 C 5.53125 -6.019531 5.640625 -6.25 5.703125 -6.53125 L 6.46875 -6.53125 L 6.46875 -3.484375 L 5.703125 -3.484375 C 5.566406 -3.878906 5.4375 -4.15625 5.3125 -4.3125 C 5.1875 -4.46875 5.039062 -4.554688 4.875 -4.578125 L 3.515625 -4.6875 L 3.515625 -0.921875 L 6.09375 -0.921875 C 6.40625 -1.390625 6.632812 -2.007812 6.78125 -2.78125 C 6.988281 -2.8125 7.191406 -2.828125 7.390625 -2.828125 C 7.554688 -2.828125 7.71875 -2.8125 7.875 -2.78125 L 7.734375 0 L 0.4375 0 Z M 0.5 -0.609375 "></path></g></g></g><g fill="#f77314" fill-opacity="1"><g transform="translate(148.528287, 59.701192)"><g><path d="M 3.375 0.109375 C 2.820312 0.109375 2.269531 0.046875 1.71875 -0.078125 C 1.175781 -0.210938 0.671875 -0.40625 0.203125 -0.65625 L 0.203125 -2.890625 L 1.546875 -3.140625 C 1.578125 -2.722656 1.640625 -2.300781 1.734375 -1.875 C 1.828125 -1.445312 1.921875 -1.140625 2.015625 -0.953125 C 2.460938 -0.785156 2.875 -0.703125 3.25 -0.703125 C 3.664062 -0.703125 4.003906 -0.832031 4.265625 -1.09375 C 4.523438 -1.351562 4.65625 -1.71875 4.65625 -2.1875 C 4.65625 -2.632812 4.507812 -3.015625 4.21875 -3.328125 C 3.925781 -3.648438 3.457031 -3.945312 2.8125 -4.21875 C 2.15625 -4.5 1.640625 -4.773438 1.265625 -5.046875 C 0.890625 -5.316406 0.617188 -5.625 0.453125 -5.96875 C 0.296875 -6.320312 0.21875 -6.75 0.21875 -7.25 C 0.21875 -7.769531 0.359375 -8.234375 0.640625 -8.640625 C 0.929688 -9.046875 1.328125 -9.363281 1.828125 -9.59375 C 2.328125 -9.832031 2.894531 -9.953125 3.53125 -9.953125 C 4.070312 -9.953125 4.578125 -9.863281 5.046875 -9.6875 C 5.515625 -9.519531 5.882812 -9.289062 6.15625 -9 C 6.425781 -8.707031 6.5625 -8.382812 6.5625 -8.03125 C 6.5625 -7.695312 6.472656 -7.429688 6.296875 -7.234375 C 6.117188 -7.046875 5.890625 -6.953125 5.609375 -6.953125 C 5.242188 -6.953125 4.867188 -7.097656 4.484375 -7.390625 C 4.734375 -7.660156 4.859375 -7.957031 4.859375 -8.28125 C 4.859375 -8.550781 4.738281 -8.765625 4.5 -8.921875 C 4.269531 -9.078125 3.957031 -9.15625 3.5625 -9.15625 C 3.144531 -9.15625 2.8125 -9.046875 2.5625 -8.828125 C 2.3125 -8.617188 2.1875 -8.335938 2.1875 -7.984375 C 2.1875 -7.679688 2.242188 -7.421875 2.359375 -7.203125 C 2.472656 -6.992188 2.675781 -6.789062 2.96875 -6.59375 C 3.257812 -6.394531 3.671875 -6.175781 4.203125 -5.9375 C 5.128906 -5.539062 5.785156 -5.109375 6.171875 -4.640625 C 6.554688 -4.179688 6.75 -3.585938 6.75 -2.859375 C 6.75 -1.941406 6.441406 -1.21875 5.828125 -0.6875 C 5.210938 -0.15625 4.394531 0.109375 3.375 0.109375 Z M 3.375 0.109375 "></path></g></g></g><g fill="#ffffff" fill-opacity="1"><g transform="translate(155.512062, 59.701192)"><g></g></g></g><g fill="#ffffff" fill-opacity="1"><g transform="translate(158.755489, 59.701192)"><g><path d="M 4.609375 0.140625 C 3.222656 0.140625 2.171875 -0.273438 1.453125 -1.109375 C 0.734375 -1.941406 0.375 -3.171875 0.375 -4.796875 C 0.375 -6.492188 0.726562 -7.773438 1.4375 -8.640625 C 2.144531 -9.503906 3.203125 -9.9375 4.609375 -9.9375 C 5.191406 -9.9375 5.710938 -9.851562 6.171875 -9.6875 C 6.628906 -9.53125 6.984375 -9.300781 7.234375 -9 C 7.492188 -8.707031 7.625 -8.375 7.625 -8 C 7.625 -7.644531 7.507812 -7.34375 7.28125 -7.09375 C 7.0625 -6.84375 6.785156 -6.71875 6.453125 -6.71875 C 6.210938 -6.71875 5.984375 -6.78125 5.765625 -6.90625 C 5.554688 -7.039062 5.40625 -7.207031 5.3125 -7.40625 C 5.46875 -7.664062 5.546875 -7.925781 5.546875 -8.1875 C 5.546875 -8.476562 5.453125 -8.710938 5.265625 -8.890625 C 5.085938 -9.066406 4.847656 -9.15625 4.546875 -9.15625 C 3.378906 -9.15625 2.796875 -7.785156 2.796875 -5.046875 C 2.796875 -3.660156 2.976562 -2.613281 3.34375 -1.90625 C 3.707031 -1.207031 4.296875 -0.859375 5.109375 -0.859375 C 5.492188 -0.859375 5.878906 -0.953125 6.265625 -1.140625 C 6.648438 -1.328125 7.007812 -1.601562 7.34375 -1.96875 L 7.828125 -1.484375 C 7.367188 -0.960938 6.851562 -0.5625 6.28125 -0.28125 C 5.71875 0 5.160156 0.140625 4.609375 0.140625 Z M 4.609375 0.140625 "></path></g></g></g><g fill="#ffffff" fill-opacity="1"><g transform="translate(166.878819, 59.701192)"><g><path d="M 4.78125 0.140625 C 3.320312 0.140625 2.222656 -0.289062 1.484375 -1.15625 C 0.742188 -2.019531 0.375 -3.28125 0.375 -4.9375 C 0.375 -6.59375 0.742188 -7.847656 1.484375 -8.703125 C 2.222656 -9.566406 3.320312 -10 4.78125 -10 C 6.238281 -10 7.332031 -9.566406 8.0625 -8.703125 C 8.800781 -7.847656 9.171875 -6.59375 9.171875 -4.9375 C 9.171875 -3.28125 8.800781 -2.019531 8.0625 -1.15625 C 7.332031 -0.289062 6.238281 0.140625 4.78125 0.140625 Z M 4.78125 -0.703125 C 5.46875 -0.703125 5.960938 -1.03125 6.265625 -1.6875 C 6.566406 -2.351562 6.71875 -3.4375 6.71875 -4.9375 C 6.71875 -6.4375 6.566406 -7.507812 6.265625 -8.15625 C 5.960938 -8.8125 5.46875 -9.140625 4.78125 -9.140625 C 4.082031 -9.140625 3.578125 -8.8125 3.265625 -8.15625 C 2.953125 -7.507812 2.796875 -6.4375 2.796875 -4.9375 C 2.796875 -3.4375 2.953125 -2.351562 3.265625 -1.6875 C 3.578125 -1.03125 4.082031 -0.703125 4.78125 -0.703125 Z M 4.78125 -0.703125 "></path></g></g></g><g fill="#ffffff" fill-opacity="1"><g transform="translate(176.417465, 59.701192)"><g><path d="M 4.609375 0.140625 C 3.222656 0.140625 2.171875 -0.273438 1.453125 -1.109375 C 0.734375 -1.941406 0.375 -3.171875 0.375 -4.796875 C 0.375 -6.492188 0.726562 -7.773438 1.4375 -8.640625 C 2.144531 -9.503906 3.203125 -9.9375 4.609375 -9.9375 C 5.191406 -9.9375 5.710938 -9.851562 6.171875 -9.6875 C 6.628906 -9.53125 6.984375 -9.300781 7.234375 -9 C 7.492188 -8.707031 7.625 -8.375 7.625 -8 C 7.625 -7.644531 7.507812 -7.34375 7.28125 -7.09375 C 7.0625 -6.84375 6.785156 -6.71875 6.453125 -6.71875 C 6.210938 -6.71875 5.984375 -6.78125 5.765625 -6.90625 C 5.554688 -7.039062 5.40625 -7.207031 5.3125 -7.40625 C 5.46875 -7.664062 5.546875 -7.925781 5.546875 -8.1875 C 5.546875 -8.476562 5.453125 -8.710938 5.265625 -8.890625 C 5.085938 -9.066406 4.847656 -9.15625 4.546875 -9.15625 C 3.378906 -9.15625 2.796875 -7.785156 2.796875 -5.046875 C 2.796875 -3.660156 2.976562 -2.613281 3.34375 -1.90625 C 3.707031 -1.207031 4.296875 -0.859375 5.109375 -0.859375 C 5.492188 -0.859375 5.878906 -0.953125 6.265625 -1.140625 C 6.648438 -1.328125 7.007812 -1.601562 7.34375 -1.96875 L 7.828125 -1.484375 C 7.367188 -0.960938 6.851562 -0.5625 6.28125 -0.28125 C 5.71875 0 5.160156 0.140625 4.609375 0.140625 Z M 4.609375 0.140625 "></path></g></g></g><g fill="#ffffff" fill-opacity="1"><g transform="translate(184.540795, 59.701192)"><g><path d="M 0.5 -0.609375 C 0.6875 -0.640625 0.835938 -0.6875 0.953125 -0.75 C 1.078125 -0.8125 1.207031 -0.910156 1.34375 -1.046875 L 1.34375 -8.796875 C 1.132812 -8.972656 0.832031 -9.128906 0.4375 -9.265625 L 0.5 -9.84375 L 4.609375 -9.84375 L 4.53125 -9.234375 C 4.289062 -9.179688 4.097656 -9.125 3.953125 -9.0625 C 3.804688 -9.007812 3.660156 -8.921875 3.515625 -8.796875 L 3.515625 -5.5 L 6.890625 -5.5 L 6.890625 -8.796875 C 6.742188 -8.921875 6.59375 -9.007812 6.4375 -9.0625 C 6.289062 -9.125 6.101562 -9.179688 5.875 -9.234375 L 5.9375 -9.84375 L 10.046875 -9.84375 L 9.953125 -9.265625 C 9.566406 -9.148438 9.269531 -8.992188 9.0625 -8.796875 L 9.0625 -1.046875 C 9.28125 -0.835938 9.644531 -0.679688 10.15625 -0.578125 L 10.0625 0 L 5.984375 0 L 6.046875 -0.609375 C 6.234375 -0.640625 6.382812 -0.6875 6.5 -0.75 C 6.625 -0.8125 6.753906 -0.910156 6.890625 -1.046875 L 6.890625 -4.578125 L 3.515625 -4.578125 L 3.515625 -1.046875 C 3.734375 -0.835938 4.097656 -0.679688 4.609375 -0.578125 L 4.515625 0 L 0.4375 0 Z M 0.5 -0.609375 "></path></g></g></g><g fill="#ffffff" fill-opacity="1"><g transform="translate(195.140924, 59.701192)"><g><path d="M 4.78125 0.140625 C 3.320312 0.140625 2.222656 -0.289062 1.484375 -1.15625 C 0.742188 -2.019531 0.375 -3.28125 0.375 -4.9375 C 0.375 -6.59375 0.742188 -7.847656 1.484375 -8.703125 C 2.222656 -9.566406 3.320312 -10 4.78125 -10 C 6.238281 -10 7.332031 -9.566406 8.0625 -8.703125 C 8.800781 -7.847656 9.171875 -6.59375 9.171875 -4.9375 C 9.171875 -3.28125 8.800781 -2.019531 8.0625 -1.15625 C 7.332031 -0.289062 6.238281 0.140625 4.78125 0.140625 Z M 4.78125 -0.703125 C 5.46875 -0.703125 5.960938 -1.03125 6.265625 -1.6875 C 6.566406 -2.351562 6.71875 -3.4375 6.71875 -4.9375 C 6.71875 -6.4375 6.566406 -7.507812 6.265625 -8.15625 C 5.960938 -8.8125 5.46875 -9.140625 4.78125 -9.140625 C 4.082031 -9.140625 3.578125 -8.8125 3.265625 -8.15625 C 2.953125 -7.507812 2.796875 -6.4375 2.796875 -4.9375 C 2.796875 -3.4375 2.953125 -2.351562 3.265625 -1.6875 C 3.578125 -1.03125 4.082031 -0.703125 4.78125 -0.703125 Z M 4.78125 -0.703125 "></path></g></g></g><g fill="#ffffff" fill-opacity="1"><g transform="translate(204.679571, 59.701192)"><g><path d="M 0.5 -0.609375 C 0.6875 -0.640625 0.835938 -0.6875 0.953125 -0.75 C 1.078125 -0.8125 1.207031 -0.910156 1.34375 -1.046875 L 1.34375 -8.796875 C 1.132812 -8.972656 0.832031 -9.128906 0.4375 -9.265625 L 0.5 -9.84375 L 3.40625 -9.84375 L 7.484375 -2.703125 L 7.484375 -8.796875 C 7.328125 -8.921875 7.175781 -9.007812 7.03125 -9.0625 C 6.882812 -9.125 6.691406 -9.179688 6.453125 -9.234375 L 6.53125 -9.84375 L 9.75 -9.84375 L 9.65625 -9.265625 C 9.28125 -9.148438 8.984375 -8.992188 8.765625 -8.796875 L 8.765625 0 L 6.515625 0 L 2.625 -6.78125 L 2.625 -1.046875 C 2.851562 -0.835938 3.222656 -0.679688 3.734375 -0.578125 L 3.625 0 L 0.4375 0 Z M 0.5 -0.609375 "></path></g></g></g><g fill="#ffffff" fill-opacity="1"><g transform="translate(214.793192, 59.701192)"><g><path d="M 0.5 -0.609375 C 0.6875 -0.640625 0.835938 -0.6875 0.953125 -0.75 C 1.078125 -0.8125 1.207031 -0.910156 1.34375 -1.046875 L 1.34375 -8.796875 C 1.132812 -8.972656 0.832031 -9.128906 0.4375 -9.265625 L 0.5 -9.84375 L 3.40625 -9.84375 L 7.484375 -2.703125 L 7.484375 -8.796875 C 7.328125 -8.921875 7.175781 -9.007812 7.03125 -9.0625 C 6.882812 -9.125 6.691406 -9.179688 6.453125 -9.234375 L 6.53125 -9.84375 L 9.75 -9.84375 L 9.65625 -9.265625 C 9.28125 -9.148438 8.984375 -8.992188 8.765625 -8.796875 L 8.765625 0 L 6.515625 0 L 2.625 -6.78125 L 2.625 -1.046875 C 2.851562 -0.835938 3.222656 -0.679688 3.734375 -0.578125 L 3.625 0 L 0.4375 0 Z M 0.5 -0.609375 "></path></g></g></g><g fill="#ffffff" fill-opacity="1"><g transform="translate(224.906813, 59.701192)"><g><path d="M 0.5 -0.609375 C 0.65625 -0.628906 0.816406 -0.675781 0.984375 -0.75 C 1.148438 -0.820312 1.269531 -0.894531 1.34375 -0.96875 L 1.34375 -8.859375 C 1.101562 -9.066406 0.800781 -9.210938 0.4375 -9.296875 L 0.484375 -9.84375 L 7.65625 -9.84375 L 7.71875 -7.40625 C 7.488281 -7.332031 7.28125 -7.296875 7.09375 -7.296875 C 7 -7.296875 6.84375 -7.316406 6.625 -7.359375 C 6.539062 -7.734375 6.445312 -8.039062 6.34375 -8.28125 C 6.25 -8.519531 6.128906 -8.738281 5.984375 -8.9375 L 3.515625 -8.9375 L 3.515625 -5.4375 L 4.875 -5.546875 C 5.050781 -5.566406 5.21875 -5.664062 5.375 -5.84375 C 5.53125 -6.019531 5.640625 -6.25 5.703125 -6.53125 L 6.46875 -6.53125 L 6.46875 -3.484375 L 5.703125 -3.484375 C 5.566406 -3.878906 5.4375 -4.15625 5.3125 -4.3125 C 5.1875 -4.46875 5.039062 -4.554688 4.875 -4.578125 L 3.515625 -4.6875 L 3.515625 -0.921875 L 6.09375 -0.921875 C 6.40625 -1.390625 6.632812 -2.007812 6.78125 -2.78125 C 6.988281 -2.8125 7.191406 -2.828125 7.390625 -2.828125 C 7.554688 -2.828125 7.71875 -2.8125 7.875 -2.78125 L 7.734375 0 L 0.4375 0 Z M 0.5 -0.609375 "></path></g></g></g><g fill="#ffffff" fill-opacity="1"><g transform="translate(233.148081, 59.701192)"><g><path d="M 3.375 0.109375 C 2.820312 0.109375 2.269531 0.046875 1.71875 -0.078125 C 1.175781 -0.210938 0.671875 -0.40625 0.203125 -0.65625 L 0.203125 -2.890625 L 1.546875 -3.140625 C 1.578125 -2.722656 1.640625 -2.300781 1.734375 -1.875 C 1.828125 -1.445312 1.921875 -1.140625 2.015625 -0.953125 C 2.460938 -0.785156 2.875 -0.703125 3.25 -0.703125 C 3.664062 -0.703125 4.003906 -0.832031 4.265625 -1.09375 C 4.523438 -1.351562 4.65625 -1.71875 4.65625 -2.1875 C 4.65625 -2.632812 4.507812 -3.015625 4.21875 -3.328125 C 3.925781 -3.648438 3.457031 -3.945312 2.8125 -4.21875 C 2.15625 -4.5 1.640625 -4.773438 1.265625 -5.046875 C 0.890625 -5.316406 0.617188 -5.625 0.453125 -5.96875 C 0.296875 -6.320312 0.21875 -6.75 0.21875 -7.25 C 0.21875 -7.769531 0.359375 -8.234375 0.640625 -8.640625 C 0.929688 -9.046875 1.328125 -9.363281 1.828125 -9.59375 C 2.328125 -9.832031 2.894531 -9.953125 3.53125 -9.953125 C 4.070312 -9.953125 4.578125 -9.863281 5.046875 -9.6875 C 5.515625 -9.519531 5.882812 -9.289062 6.15625 -9 C 6.425781 -8.707031 6.5625 -8.382812 6.5625 -8.03125 C 6.5625 -7.695312 6.472656 -7.429688 6.296875 -7.234375 C 6.117188 -7.046875 5.890625 -6.953125 5.609375 -6.953125 C 5.242188 -6.953125 4.867188 -7.097656 4.484375 -7.390625 C 4.734375 -7.660156 4.859375 -7.957031 4.859375 -8.28125 C 4.859375 -8.550781 4.738281 -8.765625 4.5 -8.921875 C 4.269531 -9.078125 3.957031 -9.15625 3.5625 -9.15625 C 3.144531 -9.15625 2.8125 -9.046875 2.5625 -8.828125 C 2.3125 -8.617188 2.1875 -8.335938 2.1875 -7.984375 C 2.1875 -7.679688 2.242188 -7.421875 2.359375 -7.203125 C 2.472656 -6.992188 2.675781 -6.789062 2.96875 -6.59375 C 3.257812 -6.394531 3.671875 -6.175781 4.203125 -5.9375 C 5.128906 -5.539062 5.785156 -5.109375 6.171875 -4.640625 C 6.554688 -4.179688 6.75 -3.585938 6.75 -2.859375 C 6.75 -1.941406 6.441406 -1.21875 5.828125 -0.6875 C 5.210938 -0.15625 4.394531 0.109375 3.375 0.109375 Z M 3.375 0.109375 "></path></g></g></g></svg>